G04 Layer_Physical_Order=1*
G04 Layer_Color=255*
%FSLAX25Y25*%
%MOIN*%
G70*
G01*
G75*
%ADD10C,0.02756*%
%ADD11R,0.03740X0.03347*%
%ADD12C,0.01181*%
%ADD13C,0.01772*%
%ADD14R,0.05905X0.05905*%
%ADD15C,0.05905*%
%ADD16C,0.03150*%
D10*
X43307Y166929D02*
D03*
Y148130D02*
D03*
D11*
X34449Y161713D02*
D03*
Y167028D02*
D03*
D12*
X24606Y159449D02*
X26280D01*
X28543Y161713D01*
X34449D01*
X34154Y167323D02*
X34449Y167028D01*
X24606Y167323D02*
X34154D01*
X34449Y156988D02*
X43307Y148130D01*
X34449Y156988D02*
Y161713D01*
Y167028D02*
X34547Y166929D01*
X43307D01*
D13*
X51181D01*
X66142Y24409D02*
X67028Y148130D01*
X66142Y24409D02*
X154331D01*
Y151969D01*
X62402D02*
X154331D01*
X62402Y20669D02*
Y151969D01*
Y20669D02*
X158071D01*
Y155709D01*
X58661D02*
X158071D01*
X58661Y16929D02*
Y155709D01*
Y16929D02*
X161811D01*
Y159449D01*
X54921D02*
X161811D01*
X54921Y13189D02*
Y159449D01*
Y13189D02*
X165551D01*
Y163189D01*
X51181D02*
X165551D01*
X51181Y9449D02*
Y163189D01*
Y9449D02*
X169291D01*
Y166929D01*
X51181D02*
X169291D01*
D14*
X24606Y167323D02*
D03*
D15*
Y159449D02*
D03*
D16*
X67028Y148130D02*
D03*
M02*
