G04 Layer_Color=65535*
%FSLAX25Y25*%
%MOIN*%
G70*
G01*
G75*
%ADD17C,0.00100*%
%ADD18C,0.01000*%
G36*
X12502Y76139D02*
X12720Y76121D01*
X12957Y76102D01*
X13231Y76048D01*
X13504Y75993D01*
X13795Y75902D01*
X13832Y75884D01*
X13923Y75847D01*
X14069Y75793D01*
X14251Y75701D01*
X14451Y75592D01*
X14670Y75465D01*
X14889Y75319D01*
X15107Y75137D01*
X15126Y75118D01*
X15199Y75046D01*
X15308Y74936D01*
X15435Y74791D01*
X15563Y74608D01*
X15709Y74408D01*
X15854Y74171D01*
X15982Y73916D01*
X16000Y73879D01*
X16037Y73788D01*
X16091Y73643D01*
X16146Y73442D01*
X16201Y73187D01*
X16255Y72914D01*
X16292Y72604D01*
X16310Y72276D01*
Y72240D01*
Y72149D01*
X16292Y72003D01*
X16273Y71821D01*
X16255Y71620D01*
X16201Y71383D01*
X16146Y71147D01*
X16055Y70910D01*
X16037Y70873D01*
X16000Y70800D01*
X15946Y70691D01*
X15873Y70527D01*
X15763Y70363D01*
X15636Y70181D01*
X15490Y69999D01*
X15326Y69816D01*
X15308Y69798D01*
X15235Y69744D01*
X15144Y69652D01*
X14998Y69561D01*
X14834Y69434D01*
X14634Y69324D01*
X14415Y69215D01*
X14160Y69106D01*
X14123Y69088D01*
X14032Y69069D01*
X13887Y69015D01*
X13704Y68960D01*
X13468Y68924D01*
X13213Y68869D01*
X12921Y68851D01*
X12593Y68833D01*
X12411D01*
X12247Y68869D01*
X12192Y68887D01*
X12138Y68906D01*
X12119Y68924D01*
X12083Y68960D01*
X12046Y69051D01*
X12028Y69197D01*
Y74718D01*
X11901D01*
X11737Y74699D01*
X11554Y74681D01*
X11336Y74663D01*
X11099Y74608D01*
X10862Y74572D01*
X10644Y74499D01*
X10625Y74481D01*
X10552Y74463D01*
X10443Y74426D01*
X10297Y74353D01*
X10152Y74280D01*
X9988Y74189D01*
X9660Y73971D01*
X9641Y73952D01*
X9605Y73916D01*
X9532Y73843D01*
X9441Y73734D01*
X9350Y73624D01*
X9259Y73479D01*
X9076Y73151D01*
Y73132D01*
X9040Y73060D01*
X9022Y72969D01*
X8985Y72823D01*
X8949Y72677D01*
X8931Y72495D01*
X8894Y72076D01*
Y72057D01*
Y71985D01*
Y71875D01*
X8913Y71748D01*
X8931Y71602D01*
X8949Y71438D01*
X9022Y71128D01*
Y71110D01*
X9040Y71055D01*
X9076Y70982D01*
X9113Y70891D01*
X9186Y70673D01*
X9295Y70454D01*
Y70436D01*
X9313Y70399D01*
X9386Y70290D01*
X9477Y70126D01*
X9568Y69980D01*
Y69962D01*
X9587Y69944D01*
X9641Y69853D01*
X9678Y69744D01*
X9696Y69634D01*
Y69598D01*
X9678Y69525D01*
X9641Y69434D01*
X9568Y69361D01*
X9022Y68942D01*
X9004Y68960D01*
X8967Y68997D01*
X8913Y69051D01*
X8822Y69124D01*
X8639Y69324D01*
X8457Y69598D01*
X8439Y69616D01*
X8421Y69652D01*
X8366Y69744D01*
X8311Y69835D01*
X8257Y69944D01*
X8184Y70090D01*
X8056Y70399D01*
Y70418D01*
X8038Y70472D01*
X8002Y70564D01*
X7983Y70673D01*
X7947Y70800D01*
X7910Y70964D01*
X7838Y71292D01*
Y71311D01*
X7819Y71365D01*
Y71456D01*
X7801Y71584D01*
X7783Y71711D01*
Y71875D01*
X7765Y72203D01*
Y72221D01*
Y72240D01*
Y72349D01*
X7783Y72513D01*
X7801Y72713D01*
X7838Y72969D01*
X7874Y73224D01*
X7947Y73515D01*
X8038Y73788D01*
X8056Y73825D01*
X8093Y73916D01*
X8166Y74044D01*
X8257Y74226D01*
X8384Y74408D01*
X8530Y74626D01*
X8694Y74845D01*
X8894Y75046D01*
X8913Y75064D01*
X9004Y75137D01*
X9113Y75228D01*
X9277Y75337D01*
X9477Y75483D01*
X9714Y75610D01*
X9988Y75738D01*
X10279Y75866D01*
X10297D01*
X10316Y75884D01*
X10425Y75902D01*
X10607Y75957D01*
X10826Y76011D01*
X11117Y76066D01*
X11445Y76102D01*
X11810Y76139D01*
X12192Y76157D01*
X12338D01*
X12502Y76139D01*
D02*
G37*
G36*
X16018Y81168D02*
X18587Y80840D01*
X18606D01*
X18660Y80821D01*
X18733Y80785D01*
X18788Y80730D01*
X18806Y80712D01*
X18843Y80657D01*
X18861Y80585D01*
X18879Y80493D01*
Y79765D01*
X16018D01*
Y77378D01*
X14962D01*
Y79765D01*
X9878D01*
X9787Y79746D01*
X9678Y79728D01*
X9423Y79655D01*
X9295Y79601D01*
X9186Y79510D01*
X9168Y79491D01*
X9149Y79455D01*
X9113Y79400D01*
X9076Y79327D01*
X9022Y79236D01*
X8985Y79127D01*
X8967Y78999D01*
X8949Y78854D01*
Y78835D01*
Y78817D01*
Y78708D01*
X8967Y78580D01*
X9004Y78453D01*
X9022Y78416D01*
X9040Y78362D01*
X9076Y78252D01*
X9131Y78161D01*
X9149Y78143D01*
X9168Y78088D01*
X9222Y78016D01*
X9259Y77961D01*
X9277Y77943D01*
X9295Y77906D01*
X9313Y77851D01*
X9332Y77797D01*
Y77779D01*
X9313Y77724D01*
X9277Y77669D01*
X9186Y77596D01*
X8494Y77159D01*
X8475Y77177D01*
X8439Y77232D01*
X8366Y77305D01*
X8293Y77414D01*
X8202Y77560D01*
X8111Y77706D01*
X8020Y77888D01*
X7947Y78088D01*
Y78107D01*
X7910Y78179D01*
X7892Y78289D01*
X7856Y78416D01*
X7819Y78580D01*
X7783Y78781D01*
X7765Y78963D01*
X7746Y79181D01*
Y79200D01*
Y79218D01*
Y79273D01*
X7765Y79346D01*
X7783Y79528D01*
X7819Y79746D01*
X7874Y79983D01*
X7983Y80238D01*
X8111Y80475D01*
X8293Y80694D01*
X8311Y80712D01*
X8402Y80767D01*
X8530Y80858D01*
X8694Y80949D01*
X8913Y81058D01*
X9186Y81131D01*
X9514Y81204D01*
X9878Y81222D01*
X14962D01*
Y82224D01*
Y82243D01*
X14980Y82297D01*
X14998Y82370D01*
X15034Y82443D01*
X15053Y82461D01*
X15089Y82479D01*
X15162Y82516D01*
X15271Y82534D01*
X15836D01*
X16018Y81168D01*
D02*
G37*
G36*
X16182Y66100D02*
Y66081D01*
Y66045D01*
X16146Y65936D01*
X16091Y65863D01*
X16037Y65808D01*
X15946Y65735D01*
X15836Y65699D01*
X14852Y65589D01*
X14889Y65571D01*
X14962Y65498D01*
X15089Y65389D01*
X15235Y65225D01*
X15399Y65061D01*
X15581Y64842D01*
X15745Y64624D01*
X15909Y64387D01*
X15927Y64350D01*
X15964Y64259D01*
X16037Y64132D01*
X16109Y63931D01*
X16182Y63713D01*
X16255Y63440D01*
X16292Y63148D01*
X16310Y62838D01*
Y62802D01*
Y62729D01*
X16292Y62601D01*
X16273Y62437D01*
X16255Y62255D01*
X16219Y62055D01*
X16146Y61836D01*
X16073Y61636D01*
X16055Y61617D01*
X16037Y61545D01*
X15982Y61453D01*
X15909Y61326D01*
X15818Y61198D01*
X15709Y61034D01*
X15581Y60889D01*
X15435Y60761D01*
X15417Y60743D01*
X15362Y60707D01*
X15271Y60634D01*
X15162Y60561D01*
X14998Y60488D01*
X14834Y60397D01*
X14652Y60306D01*
X14433Y60233D01*
X14415D01*
X14324Y60196D01*
X14215Y60178D01*
X14051Y60142D01*
X13868Y60105D01*
X13650Y60087D01*
X13413Y60050D01*
X7874D01*
Y61526D01*
X13304D01*
X13486Y61545D01*
X13686Y61581D01*
X13923Y61636D01*
X14160Y61709D01*
X14397Y61818D01*
X14615Y61964D01*
X14634Y61982D01*
X14706Y62037D01*
X14779Y62146D01*
X14889Y62273D01*
X14980Y62456D01*
X15071Y62692D01*
X15126Y62947D01*
X15144Y63257D01*
Y63294D01*
Y63367D01*
X15126Y63494D01*
X15107Y63658D01*
X15053Y63840D01*
X14998Y64041D01*
X14907Y64259D01*
X14798Y64478D01*
X14779Y64496D01*
X14743Y64569D01*
X14670Y64678D01*
X14561Y64824D01*
X14433Y64988D01*
X14269Y65152D01*
X14087Y65334D01*
X13887Y65517D01*
X7874D01*
Y66974D01*
X16182D01*
Y66100D01*
D02*
G37*
G36*
X10133Y49173D02*
X10261Y49155D01*
X10407Y49119D01*
X10552Y49082D01*
X10735Y49009D01*
X10898Y48918D01*
X10917Y48900D01*
X10971Y48864D01*
X11062Y48791D01*
X11172Y48700D01*
X11299Y48590D01*
X11427Y48426D01*
X11573Y48262D01*
X11700Y48044D01*
X11718Y48007D01*
X11755Y47934D01*
X11828Y47807D01*
X11919Y47624D01*
X12010Y47388D01*
X12101Y47133D01*
X12192Y46823D01*
X12283Y46477D01*
Y46458D01*
X12302Y46422D01*
Y46367D01*
X12320Y46294D01*
X12338Y46203D01*
X12356Y46094D01*
X12411Y45803D01*
X12447Y45456D01*
X12484Y45055D01*
X12502Y44600D01*
X12520Y44090D01*
X13322D01*
X13504Y44108D01*
X13704Y44144D01*
X13960Y44199D01*
X14196Y44272D01*
X14433Y44363D01*
X14634Y44509D01*
X14652Y44527D01*
X14706Y44582D01*
X14798Y44673D01*
X14889Y44819D01*
X14980Y44983D01*
X15071Y45201D01*
X15126Y45438D01*
X15144Y45730D01*
Y45748D01*
Y45821D01*
Y45912D01*
X15126Y46039D01*
X15089Y46331D01*
X14998Y46622D01*
Y46641D01*
X14980Y46677D01*
X14943Y46750D01*
X14907Y46841D01*
X14816Y47041D01*
X14688Y47260D01*
Y47278D01*
X14670Y47297D01*
X14597Y47406D01*
X14488Y47552D01*
X14379Y47716D01*
X14360Y47752D01*
X14324Y47825D01*
X14269Y47952D01*
X14251Y48098D01*
Y48116D01*
X14269Y48189D01*
X14288Y48262D01*
X14324Y48353D01*
X14342Y48371D01*
X14379Y48408D01*
X14451Y48481D01*
X14524Y48535D01*
X14998Y48791D01*
X15034Y48754D01*
X15107Y48663D01*
X15217Y48535D01*
X15362Y48353D01*
X15526Y48116D01*
X15690Y47880D01*
X15854Y47606D01*
X15982Y47315D01*
Y47297D01*
X16000Y47278D01*
X16037Y47169D01*
X16091Y47005D01*
X16164Y46786D01*
X16219Y46531D01*
X16273Y46222D01*
X16310Y45894D01*
X16328Y45547D01*
Y45511D01*
Y45438D01*
X16310Y45292D01*
X16292Y45128D01*
X16273Y44946D01*
X16237Y44728D01*
X16164Y44527D01*
X16091Y44309D01*
X16073Y44290D01*
X16055Y44217D01*
X16000Y44108D01*
X15927Y43981D01*
X15836Y43853D01*
X15709Y43689D01*
X15581Y43543D01*
X15435Y43398D01*
X15417Y43379D01*
X15362Y43343D01*
X15271Y43270D01*
X15162Y43197D01*
X15016Y43106D01*
X14852Y43015D01*
X14670Y42924D01*
X14451Y42851D01*
X14433Y42833D01*
X14342Y42814D01*
X14233Y42778D01*
X14069Y42742D01*
X13887Y42705D01*
X13668Y42687D01*
X13431Y42650D01*
X7874D01*
Y43306D01*
Y43343D01*
Y43416D01*
X7892Y43543D01*
X7929Y43652D01*
X7947Y43671D01*
X7983Y43725D01*
X8074Y43780D01*
X8202Y43817D01*
X8967Y43981D01*
X8949Y43999D01*
X8913Y44035D01*
X8858Y44108D01*
X8785Y44181D01*
X8621Y44381D01*
X8439Y44618D01*
X8421Y44636D01*
X8402Y44673D01*
X8366Y44728D01*
X8311Y44819D01*
X8184Y45019D01*
X8056Y45274D01*
Y45292D01*
X8038Y45329D01*
X8002Y45402D01*
X7965Y45493D01*
X7929Y45602D01*
X7892Y45730D01*
X7819Y46021D01*
Y46039D01*
X7801Y46094D01*
Y46167D01*
X7783Y46276D01*
X7765Y46404D01*
Y46549D01*
X7746Y46878D01*
Y46896D01*
Y46950D01*
Y47041D01*
X7765Y47169D01*
X7783Y47315D01*
X7801Y47460D01*
X7874Y47789D01*
Y47807D01*
X7892Y47861D01*
X7929Y47934D01*
X7965Y48044D01*
X8093Y48280D01*
X8275Y48517D01*
X8293Y48535D01*
X8330Y48572D01*
X8384Y48627D01*
X8457Y48700D01*
X8566Y48772D01*
X8676Y48864D01*
X8967Y49009D01*
X8985D01*
X9040Y49046D01*
X9131Y49064D01*
X9240Y49100D01*
X9386Y49137D01*
X9568Y49155D01*
X9751Y49191D01*
X10042D01*
X10133Y49173D01*
D02*
G37*
G36*
X16182Y56990D02*
Y56971D01*
Y56935D01*
X16146Y56826D01*
X16091Y56753D01*
X16037Y56698D01*
X15946Y56625D01*
X15836Y56589D01*
X14852Y56479D01*
X14889Y56461D01*
X14962Y56388D01*
X15089Y56279D01*
X15235Y56115D01*
X15399Y55951D01*
X15581Y55732D01*
X15745Y55514D01*
X15909Y55277D01*
X15927Y55240D01*
X15964Y55149D01*
X16037Y55022D01*
X16109Y54821D01*
X16182Y54603D01*
X16255Y54330D01*
X16292Y54038D01*
X16310Y53728D01*
Y53692D01*
Y53619D01*
X16292Y53491D01*
X16273Y53327D01*
X16255Y53145D01*
X16219Y52945D01*
X16146Y52726D01*
X16073Y52526D01*
X16055Y52508D01*
X16037Y52435D01*
X15982Y52343D01*
X15909Y52216D01*
X15818Y52088D01*
X15709Y51924D01*
X15581Y51779D01*
X15435Y51651D01*
X15417Y51633D01*
X15362Y51596D01*
X15271Y51524D01*
X15162Y51451D01*
X14998Y51378D01*
X14834Y51287D01*
X14652Y51196D01*
X14433Y51123D01*
X14415D01*
X14324Y51086D01*
X14215Y51068D01*
X14051Y51032D01*
X13868Y50995D01*
X13650Y50977D01*
X13413Y50941D01*
X7874D01*
Y52416D01*
X13304D01*
X13486Y52435D01*
X13686Y52471D01*
X13923Y52526D01*
X14160Y52599D01*
X14397Y52708D01*
X14615Y52854D01*
X14634Y52872D01*
X14706Y52926D01*
X14779Y53036D01*
X14889Y53163D01*
X14980Y53346D01*
X15071Y53582D01*
X15126Y53838D01*
X15144Y54147D01*
Y54184D01*
Y54257D01*
X15126Y54384D01*
X15107Y54548D01*
X15053Y54730D01*
X14998Y54931D01*
X14907Y55149D01*
X14798Y55368D01*
X14779Y55386D01*
X14743Y55459D01*
X14670Y55568D01*
X14561Y55714D01*
X14433Y55878D01*
X14269Y56042D01*
X14087Y56224D01*
X13887Y56406D01*
X7874D01*
Y57864D01*
X16182D01*
Y56990D01*
D02*
G37*
G36*
Y89931D02*
Y89913D01*
Y89877D01*
X16146Y89767D01*
X16091Y89694D01*
X16037Y89640D01*
X15946Y89567D01*
X15836Y89530D01*
X14852Y89421D01*
X14889Y89403D01*
X14962Y89330D01*
X15089Y89221D01*
X15235Y89057D01*
X15399Y88893D01*
X15581Y88674D01*
X15745Y88455D01*
X15909Y88219D01*
X15927Y88182D01*
X15964Y88091D01*
X16037Y87964D01*
X16109Y87763D01*
X16182Y87545D01*
X16255Y87271D01*
X16292Y86980D01*
X16310Y86670D01*
Y86633D01*
Y86561D01*
X16292Y86433D01*
X16273Y86269D01*
X16255Y86087D01*
X16219Y85887D01*
X16146Y85668D01*
X16073Y85467D01*
X16055Y85449D01*
X16037Y85376D01*
X15982Y85285D01*
X15909Y85158D01*
X15818Y85030D01*
X15709Y84866D01*
X15581Y84720D01*
X15435Y84593D01*
X15417Y84575D01*
X15362Y84538D01*
X15271Y84465D01*
X15162Y84392D01*
X14998Y84320D01*
X14834Y84228D01*
X14652Y84137D01*
X14433Y84065D01*
X14415D01*
X14324Y84028D01*
X14215Y84010D01*
X14051Y83973D01*
X13868Y83937D01*
X13650Y83919D01*
X13413Y83882D01*
X7874D01*
Y85358D01*
X13304D01*
X13486Y85376D01*
X13686Y85413D01*
X13923Y85467D01*
X14160Y85540D01*
X14397Y85650D01*
X14615Y85795D01*
X14634Y85814D01*
X14706Y85868D01*
X14779Y85978D01*
X14889Y86105D01*
X14980Y86287D01*
X15071Y86524D01*
X15126Y86779D01*
X15144Y87089D01*
Y87125D01*
Y87198D01*
X15126Y87326D01*
X15107Y87490D01*
X15053Y87672D01*
X14998Y87872D01*
X14907Y88091D01*
X14798Y88310D01*
X14779Y88328D01*
X14743Y88401D01*
X14670Y88510D01*
X14561Y88656D01*
X14433Y88820D01*
X14269Y88984D01*
X14087Y89166D01*
X13887Y89348D01*
X7874D01*
Y90806D01*
X16182D01*
Y89931D01*
D02*
G37*
G36*
X14087Y116806D02*
X14215D01*
X14543Y116769D01*
X14925Y116715D01*
X15326Y116642D01*
X15745Y116551D01*
X16164Y116405D01*
X16182D01*
X16219Y116387D01*
X16273Y116350D01*
X16346Y116332D01*
X16565Y116223D01*
X16820Y116095D01*
X17112Y115913D01*
X17439Y115713D01*
X17749Y115458D01*
X18059Y115184D01*
X18077Y115166D01*
X18095Y115148D01*
X18187Y115039D01*
X18332Y114874D01*
X18515Y114656D01*
X18715Y114383D01*
X18915Y114073D01*
X19116Y113708D01*
X19298Y113326D01*
Y113308D01*
X19316Y113271D01*
X19334Y113216D01*
X19371Y113125D01*
X19407Y113034D01*
X19444Y112907D01*
X19535Y112615D01*
X19608Y112251D01*
X19681Y111850D01*
X19735Y111395D01*
X19753Y110921D01*
Y110903D01*
Y110866D01*
Y110793D01*
Y110702D01*
X19735Y110593D01*
Y110465D01*
X19699Y110155D01*
X19644Y109809D01*
X19571Y109445D01*
X19480Y109062D01*
X19334Y108698D01*
Y108680D01*
X19316Y108661D01*
X19298Y108607D01*
X19262Y108534D01*
X19170Y108352D01*
X19043Y108133D01*
X18879Y107878D01*
X18697Y107587D01*
X18478Y107295D01*
X18223Y107022D01*
X17512Y107532D01*
X17494D01*
X17476Y107568D01*
X17385Y107659D01*
Y107678D01*
X17367Y107714D01*
X17348Y107787D01*
X17330Y107878D01*
Y107896D01*
X17348Y107951D01*
X17367Y108024D01*
X17403Y108115D01*
X17421Y108133D01*
X17458Y108188D01*
X17512Y108279D01*
X17585Y108388D01*
X17604Y108425D01*
X17658Y108498D01*
X17749Y108625D01*
X17840Y108771D01*
Y108789D01*
X17859Y108807D01*
X17913Y108917D01*
X17986Y109081D01*
X18077Y109299D01*
Y109317D01*
X18095Y109354D01*
X18114Y109427D01*
X18150Y109500D01*
X18187Y109609D01*
X18223Y109737D01*
X18278Y110010D01*
Y110028D01*
X18296Y110083D01*
X18314Y110155D01*
X18332Y110265D01*
Y110411D01*
X18350Y110556D01*
X18369Y110921D01*
Y110939D01*
Y110957D01*
Y111012D01*
Y111085D01*
X18350Y111267D01*
X18332Y111486D01*
X18296Y111759D01*
X18223Y112050D01*
X18150Y112360D01*
X18041Y112652D01*
X18023Y112688D01*
X17986Y112779D01*
X17913Y112925D01*
X17804Y113107D01*
X17676Y113326D01*
X17512Y113544D01*
X17330Y113781D01*
X17112Y114000D01*
X17093Y114018D01*
X17002Y114091D01*
X16875Y114200D01*
X16711Y114328D01*
X16492Y114474D01*
X16237Y114619D01*
X15964Y114765D01*
X15654Y114893D01*
X15636D01*
X15618Y114911D01*
X15508Y114947D01*
X15326Y114984D01*
X15089Y115039D01*
X14816Y115111D01*
X14488Y115148D01*
X14123Y115184D01*
X13741Y115202D01*
X13559D01*
X13340Y115184D01*
X13085Y115166D01*
X12775Y115130D01*
X12447Y115075D01*
X12101Y115002D01*
X11773Y114893D01*
X11755D01*
X11737Y114874D01*
X11627Y114838D01*
X11463Y114765D01*
X11263Y114656D01*
X11044Y114528D01*
X10789Y114383D01*
X10552Y114219D01*
X10316Y114018D01*
X10297Y114000D01*
X10224Y113927D01*
X10115Y113800D01*
X9988Y113654D01*
X9842Y113453D01*
X9696Y113235D01*
X9550Y112998D01*
X9423Y112725D01*
X9404Y112688D01*
X9368Y112597D01*
X9332Y112451D01*
X9277Y112251D01*
X9204Y111996D01*
X9168Y111741D01*
X9131Y111431D01*
X9113Y111121D01*
Y111103D01*
Y111030D01*
Y110939D01*
Y110811D01*
X9131Y110666D01*
Y110502D01*
X9168Y110192D01*
Y110174D01*
X9186Y110119D01*
Y110046D01*
X9204Y109937D01*
X9277Y109682D01*
X9350Y109408D01*
Y109390D01*
X9368Y109354D01*
X9404Y109281D01*
X9441Y109190D01*
X9550Y108971D01*
X9696Y108753D01*
X9714Y108734D01*
X9732Y108698D01*
X9769Y108643D01*
X9824Y108552D01*
X9988Y108352D01*
X10170Y108133D01*
X10188Y108115D01*
X10243Y108042D01*
X10279Y107951D01*
X10297Y107860D01*
Y107842D01*
X10279Y107769D01*
X10261Y107696D01*
X10188Y107623D01*
X9496Y106985D01*
X9459Y107022D01*
X9368Y107113D01*
X9204Y107277D01*
X9022Y107477D01*
X8822Y107732D01*
X8603Y108042D01*
X8402Y108370D01*
X8202Y108753D01*
Y108771D01*
X8184Y108807D01*
X8166Y108862D01*
X8129Y108935D01*
X8093Y109026D01*
X8056Y109153D01*
X8020Y109281D01*
X7983Y109445D01*
X7892Y109809D01*
X7819Y110228D01*
X7765Y110702D01*
X7746Y111231D01*
Y111249D01*
Y111285D01*
Y111358D01*
Y111449D01*
X7765Y111558D01*
Y111686D01*
X7801Y111996D01*
X7856Y112342D01*
X7929Y112725D01*
X8038Y113125D01*
X8184Y113526D01*
Y113544D01*
X8202Y113563D01*
X8238Y113617D01*
X8257Y113690D01*
X8366Y113891D01*
X8494Y114128D01*
X8676Y114419D01*
X8876Y114710D01*
X9131Y115002D01*
X9404Y115294D01*
X9423D01*
X9441Y115330D01*
X9550Y115421D01*
X9714Y115549D01*
X9933Y115713D01*
X10206Y115895D01*
X10534Y116077D01*
X10898Y116259D01*
X11299Y116423D01*
X11318D01*
X11354Y116441D01*
X11409Y116460D01*
X11500Y116478D01*
X11591Y116514D01*
X11718Y116551D01*
X12028Y116624D01*
X12393Y116697D01*
X12793Y116769D01*
X13249Y116806D01*
X13741Y116824D01*
X13960D01*
X14087Y116806D01*
D02*
G37*
G36*
X19626Y118172D02*
X18332D01*
Y123802D01*
X14215D01*
Y118992D01*
X12921D01*
Y123802D01*
X7874D01*
Y125406D01*
X19626D01*
Y118172D01*
D02*
G37*
G36*
Y136975D02*
Y136957D01*
Y136939D01*
Y136848D01*
X19608Y136757D01*
X19571Y136666D01*
X19553Y136647D01*
X19517Y136593D01*
X19462Y136520D01*
X19353Y136429D01*
X10498Y129633D01*
X10534D01*
X10625Y129651D01*
X10753D01*
X10898Y129669D01*
X19626D01*
Y128266D01*
X7874D01*
Y129068D01*
Y129104D01*
Y129177D01*
X7892Y129287D01*
X7929Y129396D01*
X7947Y129414D01*
X7983Y129469D01*
X8056Y129542D01*
X8147Y129633D01*
X17002Y136429D01*
X16565D01*
X16474Y136411D01*
X7874D01*
Y137795D01*
X19626D01*
Y136975D01*
D02*
G37*
G36*
X19608Y98367D02*
Y96746D01*
X7874Y92063D01*
Y93284D01*
Y93320D01*
X7892Y93411D01*
X7910Y93521D01*
X7965Y93630D01*
X7983Y93648D01*
X8038Y93703D01*
X8129Y93776D01*
X8238Y93830D01*
X11081Y94924D01*
Y100189D01*
X8238Y101301D01*
X8220Y101319D01*
X8147Y101337D01*
X8074Y101410D01*
X7983Y101501D01*
X7965Y101519D01*
X7929Y101592D01*
X7892Y101701D01*
X7874Y101829D01*
Y103068D01*
X19608Y98367D01*
D02*
G37*
%LPC*%
G36*
X12939Y74663D02*
Y70144D01*
X13121D01*
X13231Y70163D01*
X13376Y70181D01*
X13540Y70199D01*
X13850Y70290D01*
X13868D01*
X13923Y70308D01*
X13996Y70345D01*
X14105Y70399D01*
X14342Y70527D01*
X14579Y70709D01*
X14597Y70727D01*
X14634Y70746D01*
X14688Y70819D01*
X14761Y70891D01*
X14834Y70982D01*
X14907Y71092D01*
X15053Y71365D01*
Y71383D01*
X15089Y71438D01*
X15107Y71511D01*
X15144Y71620D01*
X15180Y71748D01*
X15199Y71894D01*
X15235Y72258D01*
Y72276D01*
Y72313D01*
Y72367D01*
Y72440D01*
X15199Y72622D01*
X15162Y72859D01*
X15089Y73132D01*
X14980Y73406D01*
X14816Y73679D01*
X14615Y73916D01*
X14579Y73934D01*
X14506Y74007D01*
X14360Y74116D01*
X14178Y74226D01*
X13941Y74353D01*
X13650Y74481D01*
X13322Y74590D01*
X12939Y74663D01*
D02*
G37*
G36*
X10006Y47789D02*
X9896D01*
X9805Y47770D01*
X9623Y47734D01*
X9441Y47679D01*
X9423D01*
X9404Y47661D01*
X9295Y47606D01*
X9168Y47515D01*
X9040Y47406D01*
X9022Y47369D01*
X8967Y47278D01*
X8894Y47151D01*
X8822Y46987D01*
Y46969D01*
Y46950D01*
X8803Y46896D01*
Y46823D01*
X8785Y46641D01*
X8767Y46440D01*
Y46422D01*
Y46367D01*
Y46294D01*
X8785Y46203D01*
X8803Y45985D01*
X8840Y45748D01*
Y45730D01*
X8858Y45693D01*
X8876Y45620D01*
X8894Y45547D01*
X8949Y45347D01*
X9040Y45147D01*
Y45128D01*
X9058Y45092D01*
X9095Y45037D01*
X9131Y44964D01*
X9240Y44800D01*
X9386Y44600D01*
X9404Y44582D01*
X9423Y44545D01*
X9477Y44509D01*
X9532Y44436D01*
X9678Y44272D01*
X9860Y44090D01*
X11591D01*
Y44108D01*
Y44126D01*
Y44181D01*
Y44254D01*
Y44436D01*
X11573Y44673D01*
X11554Y44946D01*
X11536Y45238D01*
X11500Y45529D01*
X11445Y45803D01*
Y45839D01*
X11427Y45912D01*
X11390Y46039D01*
X11354Y46203D01*
X11318Y46385D01*
X11245Y46586D01*
X11190Y46768D01*
X11117Y46950D01*
Y46969D01*
X11081Y47023D01*
X11044Y47096D01*
X10990Y47187D01*
X10826Y47406D01*
X10735Y47497D01*
X10625Y47588D01*
X10607D01*
X10571Y47624D01*
X10516Y47643D01*
X10443Y47679D01*
X10243Y47752D01*
X10133Y47770D01*
X10006Y47789D01*
D02*
G37*
G36*
X12210Y99752D02*
Y95361D01*
X16984Y97219D01*
X17002D01*
X17075Y97256D01*
X17166Y97292D01*
X17294Y97329D01*
X17458Y97383D01*
X17640Y97438D01*
X17859Y97511D01*
X18095Y97566D01*
X18077D01*
X18041Y97584D01*
X17968Y97602D01*
X17895Y97620D01*
X17695Y97675D01*
X17476Y97748D01*
X17458D01*
X17439Y97766D01*
X17312Y97802D01*
X17148Y97839D01*
X16984Y97912D01*
X12210Y99752D01*
D02*
G37*
%LPD*%
D17*
X18607Y13522D02*
Y15422D01*
X19907Y34222D02*
Y36522D01*
X20307Y28522D02*
Y33422D01*
X19907Y25122D02*
Y26422D01*
X20407Y28422D02*
Y33522D01*
X20507Y14922D02*
Y23422D01*
X20407Y25222D02*
Y26822D01*
X20107Y34422D02*
Y36722D01*
X20207Y25222D02*
Y26622D01*
X20307Y15122D02*
Y23322D01*
X20207Y11722D02*
Y13922D01*
X20107Y28522D02*
Y33222D01*
X20007Y11922D02*
Y14122D01*
Y28622D02*
Y33122D01*
X20207Y34522D02*
Y36822D01*
X20507Y25222D02*
Y26622D01*
X20007Y25222D02*
Y26422D01*
X20407Y15022D02*
Y23422D01*
X19807Y15622D02*
Y32922D01*
X20107Y25222D02*
Y26522D01*
X20407Y11522D02*
Y13722D01*
X19807Y34122D02*
Y36422D01*
X20507Y34822D02*
Y37222D01*
X20007Y34322D02*
Y36622D01*
X19707Y12322D02*
Y14422D01*
X19907Y15522D02*
Y23422D01*
X20607Y14822D02*
Y23422D01*
X20407Y34722D02*
Y37122D01*
X20107Y11822D02*
Y14022D01*
Y15322D02*
Y23322D01*
X19907Y12122D02*
Y14222D01*
X20207Y28522D02*
Y33322D01*
X20607Y25222D02*
Y26622D01*
X20207Y15222D02*
Y23322D01*
X19907Y28522D02*
Y33022D01*
X20607Y11222D02*
Y13622D01*
X20007Y15422D02*
Y23322D01*
X19707Y15622D02*
Y32822D01*
X20307Y25222D02*
Y26822D01*
X20507Y11422D02*
Y13622D01*
X20307Y11622D02*
Y13822D01*
X20507Y28422D02*
Y33522D01*
X19707Y34122D02*
Y36322D01*
X20307Y34622D02*
Y36922D01*
X19807Y12222D02*
Y14322D01*
X19207Y12822D02*
Y14922D01*
X19307Y12722D02*
Y14822D01*
X19107Y13022D02*
Y15022D01*
Y33522D02*
Y35622D01*
X19007Y33422D02*
Y35522D01*
X18907Y33322D02*
Y35422D01*
X19107Y16222D02*
Y32222D01*
X19307Y33722D02*
Y35822D01*
X19407Y15922D02*
Y32522D01*
X18807Y16522D02*
Y31922D01*
X19207Y33622D02*
Y35722D01*
X18907Y13222D02*
Y15222D01*
X19507Y33922D02*
Y36022D01*
X19007Y16322D02*
Y32122D01*
X18707Y33122D02*
Y35122D01*
Y16622D02*
Y31822D01*
X18907Y16422D02*
Y32022D01*
X19407Y33822D02*
Y35922D01*
X18807Y33222D02*
Y35222D01*
X19007Y13122D02*
Y15122D01*
X18607Y33022D02*
Y35022D01*
X18807Y13322D02*
Y15322D01*
X19507Y12522D02*
Y14622D01*
X19207Y16122D02*
Y32322D01*
X19507Y15822D02*
Y32622D01*
X19307Y16022D02*
Y32422D01*
X19607Y12422D02*
Y14522D01*
X19407Y12622D02*
Y14722D01*
X19607Y15722D02*
Y32722D01*
X18707Y13422D02*
Y15422D01*
X37807Y27622D02*
Y30222D01*
Y22322D02*
Y26022D01*
Y18422D02*
Y20822D01*
X37707Y27722D02*
Y30322D01*
Y22122D02*
Y26122D01*
Y18322D02*
Y20622D01*
X37607Y27822D02*
Y30422D01*
Y22022D02*
Y26322D01*
Y18222D02*
Y20522D01*
X37507Y27922D02*
Y30522D01*
Y21922D02*
Y26422D01*
Y18122D02*
Y20422D01*
X37407Y28122D02*
Y30622D01*
Y21822D02*
Y26522D01*
Y18122D02*
Y20322D01*
X37307Y28222D02*
Y30722D01*
Y21622D02*
Y26722D01*
Y18022D02*
Y20222D01*
X37207Y28322D02*
Y30822D01*
Y21522D02*
Y26822D01*
Y17922D02*
Y20022D01*
X37107Y28422D02*
Y30922D01*
Y21422D02*
Y26922D01*
Y17822D02*
Y19922D01*
X37007Y28522D02*
Y31022D01*
Y21322D02*
Y27122D01*
Y17722D02*
Y19822D01*
X36907Y28722D02*
Y31022D01*
Y21122D02*
Y27222D01*
Y17622D02*
Y19722D01*
X36807Y28822D02*
Y31122D01*
Y21022D02*
Y27322D01*
Y17522D02*
Y19622D01*
X36707Y28922D02*
Y31222D01*
Y20922D02*
Y27422D01*
Y17422D02*
Y19522D01*
X36607Y29022D02*
Y31322D01*
Y20822D02*
Y27622D01*
Y17322D02*
Y19322D01*
X36507Y29122D02*
Y31422D01*
Y20622D02*
Y27722D01*
Y17222D02*
Y19222D01*
X36407Y29222D02*
Y31522D01*
Y20522D02*
Y27822D01*
Y17122D02*
Y19122D01*
X36307Y29322D02*
Y31622D01*
Y20422D02*
Y27922D01*
Y17022D02*
Y19022D01*
X36207Y29522D02*
Y31722D01*
Y20322D02*
Y28122D01*
Y16922D02*
Y18922D01*
X36107Y29622D02*
Y31822D01*
Y20222D02*
Y28222D01*
Y16822D02*
Y18822D01*
X36007Y29722D02*
Y31922D01*
Y20022D02*
Y28322D01*
Y16722D02*
Y18722D01*
X35907Y29822D02*
Y32022D01*
Y19922D02*
Y28422D01*
Y16622D02*
Y18622D01*
X35807Y29922D02*
Y32122D01*
Y19822D02*
Y28522D01*
X37907Y22422D02*
Y25922D01*
X35807Y16522D02*
Y18522D01*
X37907D02*
Y20922D01*
X38107Y27222D02*
Y30022D01*
Y22722D02*
Y25622D01*
X26907Y38022D02*
Y42522D01*
X27307Y12022D02*
Y20222D01*
X26807Y27122D02*
Y28222D01*
X27207Y37822D02*
Y42122D01*
X26407Y20122D02*
Y23522D01*
X26907Y30622D02*
Y36822D01*
Y11722D02*
Y19622D01*
X26807Y38122D02*
Y42622D01*
X26507Y27222D02*
Y28522D01*
Y38222D02*
Y43022D01*
X26607Y20222D02*
Y23522D01*
Y11622D02*
Y19422D01*
X43407Y22922D02*
Y25722D01*
X26507Y30822D02*
Y37122D01*
X27107Y11922D02*
Y19822D01*
X26407Y5522D02*
Y10322D01*
X27007Y37922D02*
Y42422D01*
X26707Y30722D02*
Y37022D01*
Y38122D02*
Y42822D01*
X26807Y20422D02*
Y23422D01*
X26907Y27122D02*
Y28122D01*
X27007Y27122D02*
Y27922D01*
X26707Y20322D02*
Y23422D01*
Y11622D02*
Y19422D01*
X26307Y27322D02*
Y28722D01*
X26607Y30822D02*
Y37022D01*
X27607Y12222D02*
Y20022D01*
X26907Y6122D02*
Y10622D01*
X26707Y27122D02*
Y28422D01*
X26807Y11722D02*
Y19522D01*
X26307Y11422D02*
Y19222D01*
X27007Y20722D02*
Y23422D01*
X26707Y5822D02*
Y10522D01*
X27107Y25022D02*
Y25222D01*
X27207Y11922D02*
Y20022D01*
X27107Y37922D02*
Y42222D01*
X27207Y25022D02*
Y25222D01*
X26607Y38222D02*
Y42922D01*
X27107Y6422D02*
Y10722D01*
X27307Y37822D02*
Y41922D01*
X26307Y20122D02*
Y23622D01*
X27207Y30422D02*
Y36722D01*
X27007Y25022D02*
Y25122D01*
X27107Y27122D02*
Y27822D01*
X27007Y11822D02*
Y19722D01*
X27107Y22122D02*
Y23322D01*
X26907Y20522D02*
Y23422D01*
X26807Y30722D02*
Y36922D01*
X27007Y6322D02*
Y10622D01*
X26607Y5722D02*
Y10422D01*
X26507Y20222D02*
Y23522D01*
X27207Y27122D02*
Y27522D01*
X27007Y30522D02*
Y36822D01*
X27107Y20922D02*
Y22022D01*
X26307Y30822D02*
Y37122D01*
X27207Y22222D02*
Y23322D01*
Y6522D02*
Y10822D01*
X26807Y5922D02*
Y10522D01*
X38207Y18822D02*
Y21322D01*
X27407Y37722D02*
Y41822D01*
X35707Y30022D02*
Y32222D01*
Y19722D02*
Y28722D01*
Y16422D02*
Y18322D01*
X35607Y30122D02*
Y32322D01*
Y19622D02*
Y28822D01*
Y16322D02*
Y18222D01*
X35507Y30222D02*
Y32422D01*
Y19522D02*
Y28922D01*
Y16222D02*
Y18122D01*
X35407Y30322D02*
Y32522D01*
Y19422D02*
Y29022D01*
Y16122D02*
Y18022D01*
X35307Y30422D02*
Y32622D01*
Y19322D02*
Y29122D01*
Y16022D02*
Y17922D01*
X35207Y30622D02*
Y32722D01*
Y19222D02*
Y29222D01*
Y15922D02*
Y17822D01*
X35107Y30722D02*
Y32822D01*
Y19122D02*
Y29322D01*
Y15822D02*
Y17722D01*
X35007Y30822D02*
Y32922D01*
Y18922D02*
Y29422D01*
Y15822D02*
Y17622D01*
X34907Y30922D02*
Y33022D01*
Y24422D02*
Y29522D01*
Y18822D02*
Y24322D01*
Y15722D02*
Y17522D01*
X34807Y31022D02*
Y33122D01*
Y24422D02*
Y29722D01*
Y18722D02*
Y24222D01*
Y15622D02*
Y17322D01*
X34707Y31122D02*
Y33222D01*
Y24422D02*
Y29822D01*
Y18622D02*
Y24222D01*
Y15522D02*
Y17222D01*
X34607Y31222D02*
Y33322D01*
Y24522D02*
Y29922D01*
Y18522D02*
Y24222D01*
Y15422D02*
Y17122D01*
X34507Y31322D02*
Y33422D01*
Y24522D02*
Y30022D01*
Y18322D02*
Y24222D01*
Y15322D02*
Y17022D01*
X34407Y31422D02*
Y33522D01*
Y24522D02*
Y30122D01*
Y18222D02*
Y24122D01*
Y15222D02*
Y16922D01*
X34307Y31522D02*
Y33622D01*
Y24522D02*
Y30222D01*
Y18122D02*
Y24122D01*
Y15122D02*
Y16822D01*
X34207Y31622D02*
Y33722D01*
Y24622D02*
Y30322D01*
Y18022D02*
Y24122D01*
Y15022D02*
Y16722D01*
X34107Y31722D02*
Y33822D01*
Y24622D02*
Y30422D01*
Y17922D02*
Y24022D01*
Y14922D02*
Y16622D01*
X34007Y31822D02*
Y33922D01*
Y24622D02*
Y30522D01*
Y17822D02*
Y24022D01*
Y14822D02*
Y16522D01*
X33907Y31922D02*
Y34022D01*
Y24722D02*
Y30622D01*
Y17722D02*
Y24022D01*
Y14722D02*
Y16422D01*
X33807Y32022D02*
Y34122D01*
Y24722D02*
Y30722D01*
Y17622D02*
Y23922D01*
Y14622D02*
Y16322D01*
X33707Y32122D02*
Y34222D01*
Y24722D02*
Y30822D01*
Y17522D02*
Y23922D01*
Y14522D02*
Y16222D01*
X33607Y32222D02*
Y34322D01*
Y24722D02*
Y30922D01*
Y17422D02*
Y23922D01*
Y14422D02*
Y16122D01*
X33507Y32322D02*
Y34422D01*
Y24822D02*
Y31122D01*
Y17322D02*
Y23822D01*
Y14322D02*
Y16022D01*
X33407Y32422D02*
Y34522D01*
Y24822D02*
Y31222D01*
Y17222D02*
Y23822D01*
Y14122D02*
Y15922D01*
X33307Y32522D02*
Y34622D01*
Y24822D02*
Y31322D01*
Y17122D02*
Y23822D01*
Y14022D02*
Y15822D01*
X33207Y32622D02*
Y34722D01*
Y24922D02*
Y31422D01*
Y17022D02*
Y23722D01*
Y13922D02*
Y15822D01*
X33107Y32722D02*
Y34822D01*
Y24922D02*
Y31522D01*
Y16922D02*
Y23722D01*
Y13822D02*
Y15722D01*
X33007Y32922D02*
Y34922D01*
Y24922D02*
Y31622D01*
Y16822D02*
Y23722D01*
Y13722D02*
Y15622D01*
X32907Y32922D02*
Y35022D01*
Y25022D02*
Y31722D01*
Y16722D02*
Y23622D01*
Y13622D02*
Y15522D01*
X32807Y33022D02*
Y35122D01*
Y25022D02*
Y31822D01*
Y16622D02*
Y23622D01*
Y13522D02*
Y15422D01*
X32707Y33122D02*
Y35222D01*
Y25022D02*
Y31922D01*
Y16522D02*
Y23622D01*
Y13422D02*
Y15322D01*
X32607Y33222D02*
Y35322D01*
Y25122D02*
Y32022D01*
Y16422D02*
Y23522D01*
Y13322D02*
Y15222D01*
X32507Y33322D02*
Y35522D01*
Y25122D02*
Y32122D01*
Y16322D02*
Y23522D01*
Y13222D02*
Y15122D01*
X32407Y33422D02*
Y35622D01*
Y25122D02*
Y32222D01*
Y13122D02*
Y15022D01*
X27607Y29822D02*
Y36422D01*
X32307Y25222D02*
Y32322D01*
Y16122D02*
Y23522D01*
Y13022D02*
Y14922D01*
X32207Y33622D02*
Y35822D01*
Y25222D02*
Y32422D01*
Y16122D02*
Y23422D01*
Y12922D02*
Y14822D01*
X32107Y33722D02*
Y35922D01*
Y25222D02*
Y32522D01*
Y16022D02*
Y23422D01*
X28007Y29122D02*
Y36122D01*
X32107Y12722D02*
Y14722D01*
X26307Y38322D02*
Y43122D01*
X38207Y27022D02*
Y29922D01*
Y22922D02*
Y25522D01*
X43907Y23222D02*
Y25322D01*
X27307Y30222D02*
Y36622D01*
X27407Y6822D02*
Y10922D01*
X41107Y21222D02*
Y27522D01*
X26607Y27222D02*
Y28522D01*
X27607Y7122D02*
Y11022D01*
X44307Y23722D02*
Y24922D01*
X43207Y22722D02*
Y25922D01*
X40707Y20922D02*
Y27822D01*
X43007Y22622D02*
Y26022D01*
X41007Y21122D02*
Y27522D01*
X27207Y21122D02*
Y21622D01*
X40907Y21022D02*
Y27622D01*
X27307Y6722D02*
Y10822D01*
Y22222D02*
Y23322D01*
X27507Y22322D02*
Y23322D01*
Y37622D02*
Y41722D01*
X43107Y22722D02*
Y25922D01*
X27507Y12222D02*
Y20322D01*
X26207Y38322D02*
Y43222D01*
X28807Y13122D02*
Y23822D01*
X41607Y21622D02*
Y27122D01*
X26407Y11522D02*
Y19322D01*
X43807Y23222D02*
Y25422D01*
X27407Y30122D02*
Y36522D01*
X42807Y22522D02*
Y26222D01*
X43507Y23022D02*
Y25622D01*
X42907Y22522D02*
Y26122D01*
X44407Y23922D02*
Y24622D01*
X43707Y23122D02*
Y25522D01*
X42707Y22422D02*
Y26222D01*
X44107Y23422D02*
Y25222D01*
X44207Y23622D02*
Y25022D01*
X44007Y23322D02*
Y25222D01*
X27307Y27122D02*
Y27222D01*
X27407Y25022D02*
Y25322D01*
X42607Y22322D02*
Y26322D01*
X42507Y22222D02*
Y26422D01*
X42407Y22222D02*
Y26522D01*
X42207Y22022D02*
Y26622D01*
X42107Y22022D02*
Y26722D01*
X42007Y21922D02*
Y26822D01*
X41907Y21822D02*
Y26922D01*
X42307Y22122D02*
Y26522D01*
X27407Y22222D02*
Y23322D01*
X26507Y5622D02*
Y10422D01*
X26407Y27222D02*
Y28622D01*
Y30822D02*
Y37122D01*
X26507Y11522D02*
Y19322D01*
X27507Y25022D02*
Y25322D01*
X43607Y23022D02*
Y25522D01*
X43307Y22822D02*
Y25822D01*
X27407Y12122D02*
Y20322D01*
X40807Y20922D02*
Y27722D01*
X28907Y8922D02*
Y12022D01*
X28807Y27322D02*
Y35422D01*
X27507Y30022D02*
Y36522D01*
X28807Y36622D02*
Y39922D01*
X41707Y21622D02*
Y27022D01*
X27507Y7022D02*
Y11022D01*
X28807Y24922D02*
Y25222D01*
X39907Y20222D02*
Y28422D01*
X41507Y21522D02*
Y27222D01*
X40307Y20522D02*
Y28122D01*
X39707Y24522D02*
Y28622D01*
X41807Y21722D02*
Y26922D01*
X38007Y27322D02*
Y30122D01*
X26407Y38222D02*
Y43122D01*
X32007Y33822D02*
Y36022D01*
Y25222D02*
Y32622D01*
Y15922D02*
Y23422D01*
Y12622D02*
Y14622D01*
X31907Y33922D02*
Y36122D01*
Y25322D02*
Y32722D01*
Y15822D02*
Y23322D01*
Y12522D02*
Y14522D01*
X31807Y34022D02*
Y36222D01*
Y25322D02*
Y32822D01*
Y15722D02*
Y23322D01*
Y12422D02*
Y14422D01*
X31707Y34122D02*
Y36322D01*
Y25322D02*
Y32922D01*
Y15622D02*
Y23322D01*
Y12322D02*
Y14422D01*
X31607Y34222D02*
Y36522D01*
Y25422D02*
Y33022D01*
Y15522D02*
Y23222D01*
Y12222D02*
Y14322D01*
X31507Y34322D02*
Y36622D01*
Y25422D02*
Y33122D01*
Y15422D02*
Y23222D01*
Y12122D02*
Y14222D01*
X31407Y34422D02*
Y36722D01*
Y25422D02*
Y33122D01*
Y15322D02*
Y23222D01*
Y12022D02*
Y14122D01*
X31307Y34522D02*
Y36822D01*
Y25522D02*
Y33222D01*
Y15222D02*
Y23122D01*
Y11822D02*
Y14022D01*
X31207Y34622D02*
Y36922D01*
Y25522D02*
Y33322D01*
Y15122D02*
Y23122D01*
Y11722D02*
Y13922D01*
X31107Y34722D02*
Y37022D01*
Y25522D02*
Y33422D01*
Y15022D02*
Y23122D01*
Y11622D02*
Y13822D01*
X31007Y34822D02*
Y37122D01*
Y25622D02*
Y33522D01*
Y15022D02*
Y23022D01*
Y11522D02*
Y13722D01*
X30907Y34822D02*
Y37322D01*
Y25622D02*
Y33622D01*
Y14922D02*
Y23022D01*
Y11422D02*
Y13722D01*
X30807Y34922D02*
Y37422D01*
Y25622D02*
Y33722D01*
Y14822D02*
Y23022D01*
Y11322D02*
Y13622D01*
X30707Y35022D02*
Y37522D01*
Y25622D02*
Y33822D01*
Y14722D02*
Y22922D01*
Y11122D02*
Y13522D01*
X30607Y35122D02*
Y37622D01*
Y25722D02*
Y33922D01*
Y14622D02*
Y22922D01*
Y11022D02*
Y13422D01*
X30507Y35222D02*
Y37722D01*
Y25722D02*
Y34022D01*
Y14522D02*
Y22922D01*
Y10922D02*
Y13322D01*
X30407Y35322D02*
Y37922D01*
Y25722D02*
Y34122D01*
Y14422D02*
Y22822D01*
Y10822D02*
Y13222D01*
X30307Y35422D02*
Y38022D01*
Y25822D02*
Y34222D01*
Y14422D02*
Y22822D01*
Y10722D02*
Y13122D01*
X30207Y35522D02*
Y38122D01*
X30107Y35622D02*
Y38222D01*
X30207Y10522D02*
Y13122D01*
Y25822D02*
Y34222D01*
Y14322D02*
Y22822D01*
X27107Y30522D02*
Y36722D01*
X38007Y18622D02*
Y21022D01*
Y22622D02*
Y25722D01*
X38307Y18922D02*
Y21422D01*
Y23122D02*
Y25322D01*
Y26922D02*
Y29822D01*
X38407Y19022D02*
Y21522D01*
Y23322D02*
Y25122D01*
Y26822D02*
Y29722D01*
X38507Y19022D02*
Y21722D01*
Y23622D02*
Y24922D01*
Y26622D02*
Y29622D01*
X38607Y19122D02*
Y21822D01*
Y26522D02*
Y29522D01*
X38707Y19222D02*
Y21922D01*
Y26422D02*
Y29422D01*
X38807Y19322D02*
Y22022D01*
Y26222D02*
Y29422D01*
X38907Y19422D02*
Y22222D01*
Y26122D02*
Y29322D01*
X39007Y19522D02*
Y22322D01*
Y26022D02*
Y29222D01*
X39107Y19522D02*
Y22522D01*
Y25822D02*
Y29122D01*
X39207Y19622D02*
Y22622D01*
Y25722D02*
Y29022D01*
X39307Y19722D02*
Y22822D01*
Y25622D02*
Y28922D01*
X39407Y19822D02*
Y23022D01*
Y25422D02*
Y28922D01*
X39507Y19922D02*
Y23322D01*
Y25222D02*
Y28822D01*
X39607Y20022D02*
Y23622D01*
Y25022D02*
Y28722D01*
X28007Y23522D02*
Y23722D01*
X29607Y24922D02*
Y25122D01*
X28007Y7722D02*
Y11322D01*
X28907Y13222D02*
Y23822D01*
Y27022D02*
Y35422D01*
Y36622D02*
Y39722D01*
X29007Y9022D02*
Y12122D01*
Y13322D02*
Y23822D01*
Y24922D02*
Y25122D01*
X39707Y20022D02*
Y24122D01*
X29007Y36522D02*
Y39622D01*
X29107Y13422D02*
Y23822D01*
Y24922D02*
Y25122D01*
Y26822D02*
Y35222D01*
Y36422D02*
Y39522D01*
X29207Y9322D02*
Y12322D01*
Y13422D02*
Y23822D01*
Y24922D02*
Y25022D01*
Y26622D02*
Y35122D01*
Y36322D02*
Y39422D01*
X29307Y9422D02*
Y12322D01*
Y13522D02*
Y23822D01*
Y24922D02*
Y25022D01*
Y25922D02*
Y35022D01*
Y36222D02*
Y39222D01*
X29407Y9522D02*
Y12422D01*
Y13622D02*
Y23822D01*
Y24922D02*
Y25022D01*
Y25822D02*
Y34922D01*
Y36122D02*
Y39122D01*
X29507Y9722D02*
Y12522D01*
Y13722D02*
Y23822D01*
Y24922D02*
Y25122D01*
Y25622D02*
Y34922D01*
Y36122D02*
Y39022D01*
X32307Y33522D02*
Y35722D01*
X29607Y9822D02*
Y12622D01*
X29007Y26922D02*
Y35322D01*
X28907Y24922D02*
Y25122D01*
X27907Y29322D02*
Y36222D01*
X39807Y20122D02*
Y28522D01*
X27607Y24922D02*
Y25322D01*
X28807Y8822D02*
Y11922D01*
X40207Y20522D02*
Y28222D01*
X40607Y20822D02*
Y27922D01*
X40507Y20722D02*
Y27922D01*
X40407Y20622D02*
Y28022D01*
X28707Y36722D02*
Y40022D01*
X40007Y20322D02*
Y28322D01*
X40107Y20422D02*
Y28322D01*
X41207Y21322D02*
Y27422D01*
X41307Y21322D02*
Y27322D01*
X26307Y5522D02*
Y10322D01*
X27607Y22322D02*
Y23222D01*
X41407Y21422D02*
Y27222D01*
X27907Y24922D02*
Y25422D01*
X27307Y25022D02*
Y25222D01*
X29107Y9122D02*
Y12222D01*
X37907Y27422D02*
Y30122D01*
X28007Y37322D02*
Y41022D01*
X32407Y16222D02*
Y23522D01*
X28107Y7822D02*
Y11422D01*
X38107Y18722D02*
Y21122D01*
X28107Y12622D02*
Y21822D01*
Y22522D02*
Y23722D01*
Y24922D02*
Y25422D01*
Y27122D02*
Y27322D01*
Y28922D02*
Y36022D01*
Y37222D02*
Y40822D01*
X28207Y7922D02*
Y11522D01*
Y12722D02*
Y22222D01*
Y22522D02*
Y23822D01*
Y24922D02*
Y25422D01*
Y27122D02*
Y27522D01*
Y28622D02*
Y35922D01*
Y37122D02*
Y40722D01*
X28307Y8122D02*
Y11622D01*
Y12722D02*
Y23822D01*
Y24922D02*
Y25422D01*
Y27322D02*
Y27622D01*
Y28322D02*
Y35822D01*
Y37022D02*
Y40522D01*
X28407Y8222D02*
Y11622D01*
Y12822D02*
Y23822D01*
Y24922D02*
Y25422D01*
Y27422D02*
Y27822D01*
Y27922D02*
Y35822D01*
Y37022D02*
Y40422D01*
X28507Y8422D02*
Y11722D01*
Y12922D02*
Y23822D01*
Y24922D02*
Y25422D01*
Y27422D02*
Y35722D01*
Y36922D02*
Y40322D01*
X28607Y8522D02*
Y11822D01*
Y13022D02*
Y23822D01*
Y24922D02*
Y25322D01*
Y27422D02*
Y35622D01*
Y36822D02*
Y40122D01*
X28707Y8622D02*
Y11922D01*
Y13122D02*
Y23822D01*
Y24922D02*
Y25322D01*
X28007Y24922D02*
Y25422D01*
X28707Y27422D02*
Y35522D01*
X27907Y37322D02*
Y41122D01*
X27607Y37622D02*
Y41522D01*
X27707Y7322D02*
Y11122D01*
Y12322D02*
Y20122D01*
Y22322D02*
Y23222D01*
Y24922D02*
Y25422D01*
Y29722D02*
Y36322D01*
Y37522D02*
Y41422D01*
X27807Y7422D02*
Y11222D01*
Y12422D02*
Y20522D01*
Y22422D02*
Y23222D01*
Y23622D02*
Y23722D01*
Y24922D02*
Y25422D01*
Y29522D02*
Y36222D01*
Y37422D02*
Y41222D01*
X27907Y7522D02*
Y11322D01*
Y12422D02*
Y21022D01*
X28007Y27122D02*
Y27222D01*
X27907Y22422D02*
Y23322D01*
Y23622D02*
Y23722D01*
X28007Y12522D02*
Y21422D01*
Y22422D02*
Y23322D01*
X29607Y13822D02*
Y23822D01*
Y25422D02*
Y34822D01*
Y36022D02*
Y38822D01*
X29707Y9922D02*
Y12722D01*
Y13922D02*
Y23822D01*
Y24922D02*
Y34722D01*
Y35922D02*
Y38722D01*
X29807Y10022D02*
Y12722D01*
Y13922D02*
Y23822D01*
Y24922D02*
Y34622D01*
Y35822D02*
Y38622D01*
X29907Y10222D02*
Y12822D01*
Y14022D02*
Y22722D01*
Y25922D02*
Y34522D01*
Y35722D02*
Y38522D01*
X30007Y10322D02*
Y12922D01*
Y14122D02*
Y22722D01*
Y25922D02*
Y34422D01*
Y35622D02*
Y38322D01*
X30107Y10422D02*
Y13022D01*
Y14222D02*
Y22722D01*
Y25822D02*
Y34322D01*
X20607Y34922D02*
Y37322D01*
X20707Y11122D02*
Y13522D01*
Y14722D02*
Y23422D01*
Y28322D02*
Y33722D01*
Y35022D02*
Y37422D01*
X20607Y28322D02*
Y33622D01*
X20707Y25222D02*
Y26522D01*
X25207Y21122D02*
Y23622D01*
X25607Y30522D02*
Y37222D01*
Y5322D02*
Y10222D01*
X25207Y26622D02*
Y27922D01*
X25007Y29722D02*
Y37122D01*
X25107Y5422D02*
Y10322D01*
X25007Y21722D02*
Y24522D01*
X25407Y38322D02*
Y43222D01*
X25007Y11522D02*
Y20122D01*
Y25222D02*
Y27322D01*
X25107Y26122D02*
Y27622D01*
X25207Y5422D02*
Y10322D01*
X25107Y38322D02*
Y43122D01*
Y29922D02*
Y37122D01*
Y11422D02*
Y19922D01*
X25207Y11422D02*
Y19822D01*
X25007Y38222D02*
Y43022D01*
X25107Y21422D02*
Y23622D01*
X25507Y27422D02*
Y28422D01*
X25607Y20422D02*
Y23722D01*
X25207Y30122D02*
Y37222D01*
Y38322D02*
Y43122D01*
X25307Y5322D02*
Y10222D01*
X25507Y11322D02*
Y19422D01*
Y38422D02*
Y43322D01*
Y30422D02*
Y37222D01*
Y5322D02*
Y10222D01*
X25607Y27422D02*
Y28522D01*
Y38422D02*
Y43322D01*
X25707Y5322D02*
Y10222D01*
Y11322D02*
Y19322D01*
Y20322D02*
Y23722D01*
Y27422D02*
Y28622D01*
Y30622D02*
Y37222D01*
Y38422D02*
Y43322D01*
X25807Y5322D02*
Y10222D01*
Y11322D02*
Y19322D01*
Y20222D02*
Y23722D01*
Y27422D02*
Y28722D01*
Y30722D02*
Y37222D01*
Y38422D02*
Y43322D01*
X25907Y5322D02*
Y10222D01*
Y11322D02*
Y19222D01*
Y20222D02*
Y23722D01*
Y27322D02*
Y28722D01*
Y30722D02*
Y37222D01*
Y38422D02*
Y43322D01*
X26007Y5322D02*
Y10222D01*
Y11322D02*
Y19222D01*
Y20122D02*
Y23722D01*
Y27322D02*
Y28722D01*
Y30822D02*
Y37222D01*
Y38422D02*
Y43322D01*
X26107Y5422D02*
Y10222D01*
Y11422D02*
Y19222D01*
Y20122D02*
Y23622D01*
Y27322D02*
Y28822D01*
Y30822D02*
Y37222D01*
Y38322D02*
Y43222D01*
X26207Y5422D02*
Y10322D01*
Y11422D02*
Y19222D01*
Y20122D02*
Y23622D01*
Y27322D02*
Y28722D01*
X25407Y27422D02*
Y28322D01*
X26207Y30822D02*
Y37222D01*
X25307Y27022D02*
Y28122D01*
X21207Y14322D02*
Y23422D01*
Y25122D02*
Y26422D01*
Y28622D02*
Y34222D01*
Y35422D02*
Y38022D01*
X21307Y10422D02*
Y13022D01*
Y14222D02*
Y23422D01*
Y25122D02*
Y26422D01*
Y28722D02*
Y34322D01*
Y35522D02*
Y38122D01*
X21407Y10322D02*
Y12922D01*
X25407Y30322D02*
Y37222D01*
X21407Y14122D02*
Y23422D01*
X25307Y20922D02*
Y23622D01*
Y38322D02*
Y43222D01*
X25407Y5322D02*
Y10222D01*
X21407Y25122D02*
Y26422D01*
Y28822D02*
Y34422D01*
Y35622D02*
Y38322D01*
X21507Y10122D02*
Y12822D01*
Y14022D02*
Y23422D01*
Y25122D02*
Y26422D01*
Y28822D02*
Y34422D01*
Y35722D02*
Y38422D01*
X21607Y10022D02*
Y12722D01*
Y13922D02*
Y23422D01*
Y25122D02*
Y26422D01*
Y28922D02*
Y34522D01*
Y35722D02*
Y38522D01*
X21707Y9922D02*
Y12622D01*
Y13822D02*
Y23422D01*
Y25122D02*
Y26422D01*
Y28922D02*
Y34622D01*
Y35822D02*
Y38622D01*
X21807Y9822D02*
Y12522D01*
Y13822D02*
Y23422D01*
Y25122D02*
Y26422D01*
Y28922D02*
Y34722D01*
Y35922D02*
Y38822D01*
X21907Y9622D02*
Y12522D01*
Y13722D02*
Y23422D01*
Y25122D02*
Y26422D01*
Y28922D02*
Y34822D01*
Y36022D02*
Y38922D01*
X22007Y9522D02*
Y12422D01*
Y13622D02*
Y23422D01*
Y25122D02*
Y26422D01*
Y28922D02*
Y34922D01*
Y36122D02*
Y39022D01*
X22107Y9422D02*
Y12322D01*
Y13522D02*
Y23422D01*
Y25122D02*
Y26322D01*
Y29022D02*
Y35022D01*
Y36222D02*
Y39122D01*
X22207Y9322D02*
Y12222D01*
Y13422D02*
Y23422D01*
Y25122D02*
Y26322D01*
Y29022D02*
Y35022D01*
Y36222D02*
Y39322D01*
X22307Y9122D02*
Y12122D01*
Y13322D02*
Y23522D01*
Y25122D02*
Y26222D01*
Y29022D02*
Y35122D01*
Y36322D02*
Y39422D01*
X22407Y9022D02*
Y12022D01*
Y13322D02*
Y23522D01*
Y25122D02*
Y26222D01*
Y29022D02*
Y35222D01*
Y36422D02*
Y39522D01*
X22507Y8922D02*
Y12022D01*
Y13222D02*
Y23522D01*
Y25122D02*
Y26122D01*
Y29022D02*
Y35322D01*
Y36522D02*
Y39622D01*
X22607Y8822D02*
Y11922D01*
Y13122D02*
Y23522D01*
Y25122D02*
Y26122D01*
Y28922D02*
Y35422D01*
Y36622D02*
Y39822D01*
X22707Y8622D02*
Y11822D01*
Y13022D02*
Y23522D01*
Y25122D02*
Y26022D01*
Y28922D02*
Y35422D01*
Y36622D02*
Y39922D01*
X22807Y8522D02*
Y11722D01*
Y12922D02*
Y23522D01*
Y25122D02*
Y26022D01*
Y28922D02*
Y35522D01*
Y36722D02*
Y40022D01*
X22907Y8422D02*
Y11622D01*
X21207Y10522D02*
Y13122D01*
X22907Y25122D02*
Y25922D01*
Y28922D02*
Y35622D01*
Y36822D02*
Y40222D01*
X23007Y8222D02*
Y11622D01*
Y12822D02*
Y23522D01*
Y25122D02*
Y25922D01*
Y28922D02*
Y35722D01*
Y36922D02*
Y40322D01*
X23107Y8122D02*
Y11522D01*
Y12722D02*
Y23522D01*
Y25022D02*
Y25822D01*
Y28822D02*
Y35822D01*
Y37022D02*
Y40422D01*
X23207Y8022D02*
Y11422D01*
Y12622D02*
Y23522D01*
Y25022D02*
Y25822D01*
Y28822D02*
Y35822D01*
Y37022D02*
Y40622D01*
X23307Y7822D02*
Y11322D01*
Y12522D02*
Y23522D01*
Y25022D02*
Y25722D01*
Y28822D02*
Y35922D01*
Y37122D02*
Y40722D01*
X23407Y7722D02*
Y11322D01*
Y12522D02*
Y23522D01*
Y25022D02*
Y25622D01*
Y28722D02*
Y36022D01*
Y37222D02*
Y40822D01*
X23507Y7622D02*
Y11222D01*
Y12422D02*
Y23522D01*
Y25022D02*
Y25622D01*
Y28722D02*
Y36122D01*
Y37222D02*
Y41022D01*
X23607Y7422D02*
Y11122D01*
Y12322D02*
Y23522D01*
Y25022D02*
Y25522D01*
Y28622D02*
Y36122D01*
Y37322D02*
Y41122D01*
X23707Y7322D02*
Y11122D01*
Y12222D02*
Y24922D01*
Y25022D02*
Y26122D01*
Y28622D02*
Y36222D01*
Y37422D02*
Y41222D01*
X23807Y7222D02*
Y11022D01*
Y12222D02*
Y26922D01*
Y28522D02*
Y36322D01*
Y37522D02*
Y41422D01*
X23907Y7022D02*
Y10922D01*
Y12122D02*
Y27522D01*
Y28422D02*
Y36422D01*
Y37522D02*
Y41522D01*
X24007Y6922D02*
Y10922D01*
Y12022D02*
Y27922D01*
Y28322D02*
Y36422D01*
Y37622D02*
Y41722D01*
X24107Y6722D02*
Y10822D01*
Y12022D02*
Y23522D01*
Y26222D02*
Y36522D01*
Y37722D02*
Y41822D01*
X24207Y6622D02*
Y10722D01*
Y11922D02*
Y22722D01*
Y27022D02*
Y36622D01*
Y37822D02*
Y41922D01*
X24307Y6422D02*
Y10722D01*
Y11922D02*
Y22222D01*
Y27622D02*
Y36622D01*
Y37822D02*
Y42122D01*
X24407Y6222D02*
Y10622D01*
Y11822D02*
Y21722D01*
Y28022D02*
Y36722D01*
Y37922D02*
Y42222D01*
X24507Y6122D02*
Y10622D01*
Y11722D02*
Y21322D01*
Y28422D02*
Y36822D01*
Y38022D02*
Y42422D01*
X24607Y5922D02*
Y10522D01*
Y11722D02*
Y21022D01*
Y28722D02*
Y36822D01*
Y38022D02*
Y42522D01*
X24707Y5822D02*
Y10522D01*
Y11622D02*
Y20722D01*
Y23322D02*
Y25722D01*
Y29022D02*
Y36922D01*
X21007Y25122D02*
Y26422D01*
X24907Y38222D02*
Y42922D01*
Y29522D02*
Y37022D01*
Y22122D02*
Y26922D01*
Y5522D02*
Y10422D01*
Y11522D02*
Y20222D01*
X24807Y38122D02*
Y42822D01*
Y29222D02*
Y37022D01*
Y22622D02*
Y26422D01*
X20807Y25222D02*
Y26522D01*
X24707Y38122D02*
Y42722D01*
X24807Y11622D02*
Y20522D01*
X20907Y25222D02*
Y26522D01*
X22907Y12822D02*
Y23522D01*
X25007Y5522D02*
Y10322D01*
X25407Y11322D02*
Y19522D01*
X25307Y30222D02*
Y37222D01*
X20807Y28322D02*
Y33822D01*
X21107Y35322D02*
Y37922D01*
Y28522D02*
Y34122D01*
Y25122D02*
Y26422D01*
X25407Y20722D02*
Y23722D01*
X21007Y35222D02*
Y37822D01*
X20807Y11022D02*
Y13422D01*
X25507Y20622D02*
Y23722D01*
X25607Y11322D02*
Y19422D01*
X21007Y14422D02*
Y23422D01*
X20807Y14622D02*
Y23422D01*
X25307Y11422D02*
Y19622D01*
X24807Y5622D02*
Y10422D01*
X20907Y14522D02*
Y23422D01*
X21107Y14422D02*
Y23422D01*
X21007Y10822D02*
Y13222D01*
X21107Y10622D02*
Y13122D01*
X20907Y28422D02*
Y33922D01*
Y10922D02*
Y13322D01*
X20807Y35122D02*
Y37522D01*
X20907Y35122D02*
Y37722D01*
X21007Y28422D02*
Y34022D01*
X7607Y23222D02*
Y25622D01*
X7707Y23122D02*
Y25622D01*
X7807Y23022D02*
Y25722D01*
X7907Y23022D02*
Y25722D01*
X8007Y22922D02*
Y25822D01*
X8107Y22822D02*
Y25922D01*
X8207Y22722D02*
Y25922D01*
X8307Y22722D02*
Y26022D01*
X8407Y22622D02*
Y26122D01*
X8507Y22522D02*
Y26122D01*
X8607Y22422D02*
Y26222D01*
X8707Y22422D02*
Y26322D01*
X8807Y22322D02*
Y26422D01*
X8907Y22222D02*
Y26422D01*
X9007Y22122D02*
Y26522D01*
X9107Y22122D02*
Y26622D01*
X9207Y22022D02*
Y26722D01*
X9307Y21922D02*
Y26722D01*
X9407Y21822D02*
Y26822D01*
X9507Y21822D02*
Y26922D01*
X9607Y21722D02*
Y27022D01*
X9707Y21622D02*
Y27022D01*
X9807Y21522D02*
Y27122D01*
X9907Y21522D02*
Y27222D01*
X10007Y21422D02*
Y27322D01*
X10107Y21322D02*
Y27322D01*
X10207Y21222D02*
Y27422D01*
X10307Y21122D02*
Y27522D01*
X10407Y21122D02*
Y27622D01*
X10507Y21022D02*
Y27622D01*
X10607Y20922D02*
Y27722D01*
X10707Y20822D02*
Y27822D01*
X10807Y20722D02*
Y27922D01*
X10907Y20722D02*
Y28022D01*
X11007Y20622D02*
Y28022D01*
X11107Y20522D02*
Y28122D01*
X11207Y20422D02*
Y28222D01*
X11307Y20322D02*
Y28322D01*
X11407Y20222D02*
Y28422D01*
X11507Y20222D02*
Y28422D01*
X11607Y20122D02*
Y28522D01*
X11707Y20022D02*
Y28622D01*
X11807Y19922D02*
Y28722D01*
X11907Y19822D02*
Y23722D01*
Y24722D02*
Y28822D01*
X12007Y19822D02*
Y23522D01*
Y24922D02*
Y28822D01*
X12107Y19722D02*
Y23222D01*
Y25122D02*
Y28922D01*
X12207Y19622D02*
Y23022D01*
Y25322D02*
Y29022D01*
X12307Y19522D02*
Y22822D01*
Y25522D02*
Y29122D01*
X12407Y19422D02*
Y22722D01*
Y25622D02*
Y29122D01*
X12507Y19322D02*
Y22522D01*
Y25822D02*
Y29222D01*
X12607Y19222D02*
Y22422D01*
Y25922D02*
Y29322D01*
X12707Y19122D02*
Y22322D01*
Y26122D02*
Y29422D01*
X12807Y19122D02*
Y22122D01*
Y26222D02*
Y29522D01*
X12907Y19022D02*
Y22022D01*
Y23622D02*
Y24822D01*
Y26422D02*
Y29622D01*
X13007Y18922D02*
Y21922D01*
Y23422D02*
Y25022D01*
Y26522D02*
Y29722D01*
X13107Y18822D02*
Y21722D01*
Y23122D02*
Y25222D01*
Y26722D02*
Y29822D01*
X13207Y18722D02*
Y21622D01*
Y23022D02*
Y25322D01*
Y26822D02*
Y29922D01*
X13307Y18622D02*
Y21522D01*
Y22822D02*
Y25522D01*
Y26922D02*
Y30022D01*
X13407Y18522D02*
Y21322D01*
Y22722D02*
Y25722D01*
Y27022D02*
Y30122D01*
X13507Y18422D02*
Y21222D01*
Y22522D02*
Y25822D01*
Y27222D02*
Y30122D01*
X13607Y18422D02*
Y21122D01*
Y22422D02*
Y26022D01*
Y27322D02*
Y30222D01*
X13707Y18322D02*
Y21022D01*
Y22222D02*
Y26122D01*
Y27422D02*
Y30322D01*
X13807Y18222D02*
Y20822D01*
Y22122D02*
Y26322D01*
Y27522D02*
Y30422D01*
X13907Y18122D02*
Y20722D01*
Y22022D02*
Y26422D01*
Y27722D02*
Y30522D01*
X14007Y18022D02*
Y20622D01*
Y21822D02*
Y26622D01*
Y27822D02*
Y30622D01*
X14107Y17922D02*
Y20522D01*
Y21722D02*
Y26722D01*
Y27922D02*
Y30722D01*
X14207Y17822D02*
Y20322D01*
Y21622D02*
Y26822D01*
Y28122D02*
Y30822D01*
X14307Y17722D02*
Y20222D01*
Y21422D02*
Y26922D01*
Y28222D02*
Y30922D01*
X14407Y17622D02*
Y20122D01*
Y21322D02*
Y27122D01*
Y28322D02*
Y30922D01*
X14507Y17522D02*
Y20022D01*
Y21222D02*
Y27222D01*
Y28422D02*
Y31022D01*
X14607Y17422D02*
Y19922D01*
Y21122D02*
Y27322D01*
Y28522D02*
Y31122D01*
X14707Y17322D02*
Y19722D01*
Y20922D02*
Y27422D01*
Y28622D02*
Y31222D01*
X14807Y17322D02*
Y19622D01*
Y20822D02*
Y27622D01*
Y28722D02*
Y31322D01*
X14907Y17222D02*
Y19522D01*
Y20722D02*
Y27722D01*
Y28922D02*
Y31422D01*
X15007Y17122D02*
Y19422D01*
Y20622D02*
Y27822D01*
Y29022D02*
Y31522D01*
X15107Y17022D02*
Y19322D01*
Y20422D02*
Y28022D01*
Y29122D02*
Y31622D01*
X15207Y16922D02*
Y19222D01*
Y20322D02*
Y28122D01*
Y29222D02*
Y31722D01*
X15307Y16822D02*
Y19122D01*
Y20222D02*
Y28222D01*
Y29322D02*
Y31822D01*
X15407Y16722D02*
Y19022D01*
Y20122D02*
Y28322D01*
Y29422D02*
Y31922D01*
X15507Y16622D02*
Y18822D01*
Y20022D02*
Y28422D01*
Y29522D02*
Y32022D01*
X15607Y16522D02*
Y18722D01*
Y19922D02*
Y28522D01*
Y29622D02*
Y32122D01*
X15707Y16422D02*
Y18622D01*
Y19822D02*
Y28622D01*
Y29822D02*
Y32222D01*
X15807Y16322D02*
Y18522D01*
Y19622D02*
Y28722D01*
Y29922D02*
Y32322D01*
X15907Y16222D02*
Y18422D01*
Y19522D02*
Y28922D01*
Y30022D02*
Y32422D01*
X16007Y16122D02*
Y18322D01*
Y19422D02*
Y29022D01*
Y30122D02*
Y32522D01*
X16107Y16022D02*
Y18222D01*
Y19322D02*
Y29122D01*
Y30222D02*
Y32622D01*
X16207Y15922D02*
Y18022D01*
Y19222D02*
Y29222D01*
Y30322D02*
Y32722D01*
X16307Y15922D02*
Y17822D01*
Y19122D02*
Y29222D01*
Y30522D02*
Y32622D01*
X16407Y15822D02*
Y17722D01*
Y19022D02*
Y29322D01*
Y30722D02*
Y32722D01*
X16507Y15722D02*
Y17622D01*
Y18922D02*
Y29422D01*
Y30822D02*
Y32822D01*
X16607Y15622D02*
Y17522D01*
Y30922D02*
Y32922D01*
Y18822D02*
Y29522D01*
X16707Y18722D02*
Y29622D01*
Y31022D02*
Y33022D01*
Y15522D02*
Y17422D01*
X18507Y32922D02*
Y34922D01*
Y16822D02*
Y31622D01*
Y13622D02*
Y15522D01*
X18407Y32822D02*
Y34822D01*
Y16922D02*
Y31522D01*
Y13722D02*
Y15622D01*
X18307Y32722D02*
Y34722D01*
Y17022D02*
Y31422D01*
Y13822D02*
Y15722D01*
X18207Y32622D02*
Y34622D01*
Y17122D02*
Y31322D01*
Y13922D02*
Y15822D01*
X18107Y32522D02*
Y34522D01*
Y17222D02*
Y31222D01*
Y14022D02*
Y15922D01*
X18007Y32422D02*
Y34422D01*
Y17322D02*
Y31122D01*
Y14222D02*
Y16022D01*
X17907Y32322D02*
Y34322D01*
Y17422D02*
Y31022D01*
Y14322D02*
Y16122D01*
X17807Y32222D02*
Y34222D01*
Y17522D02*
Y30822D01*
Y14422D02*
Y16222D01*
X17707Y32122D02*
Y34122D01*
Y17622D02*
Y30722D01*
Y14522D02*
Y16322D01*
X17607Y32022D02*
Y34022D01*
Y17722D02*
Y30622D01*
Y14622D02*
Y16422D01*
X17507Y31922D02*
Y33922D01*
Y17822D02*
Y30522D01*
Y14722D02*
Y16522D01*
X17407Y31822D02*
Y33822D01*
Y17922D02*
Y30422D01*
Y14822D02*
Y16622D01*
X17307Y31622D02*
Y33722D01*
Y18122D02*
Y30322D01*
Y14922D02*
Y16722D01*
X17207Y31522D02*
Y33522D01*
Y18222D02*
Y30222D01*
Y15022D02*
Y16822D01*
X17107Y31422D02*
Y33422D01*
Y18322D02*
Y30122D01*
Y15122D02*
Y17022D01*
X17007Y31322D02*
Y33322D01*
Y18422D02*
Y30022D01*
Y15222D02*
Y17122D01*
X16907Y31222D02*
Y33222D01*
Y18522D02*
Y29922D01*
Y15322D02*
Y17222D01*
X16807Y31122D02*
Y33122D01*
Y18622D02*
Y29722D01*
Y15422D02*
Y17322D01*
X19607Y34022D02*
Y36122D01*
X18607Y16722D02*
Y31722D01*
X7407Y23322D02*
Y25422D01*
X7207Y23522D02*
Y25322D01*
X7307Y23422D02*
Y25422D01*
X7507Y23222D02*
Y25522D01*
D18*
X8529Y148621D02*
X7217D01*
X7873D01*
Y145341D01*
X7217Y144685D01*
X6561D01*
X5906Y145341D01*
X9841Y144685D02*
X11153D01*
X10497D01*
Y148621D01*
X9841Y147965D01*
X33529Y175130D02*
X32873Y175786D01*
X31561D01*
X30906Y175130D01*
Y172506D01*
X31561Y171850D01*
X32873D01*
X33529Y172506D01*
X34841Y171850D02*
X36153D01*
X35497D01*
Y175786D01*
X34841Y175130D01*
X42388Y127952D02*
X41076D01*
X41732D01*
Y124672D01*
X41076Y124016D01*
X40420D01*
X39764Y124672D01*
X46323Y124016D02*
X43699D01*
X46323Y126640D01*
Y127295D01*
X45667Y127952D01*
X44355D01*
X43699Y127295D01*
M02*
