%
M48
METRIC,000.000
T01C0.45
T02C0.70
T03C0.45
T10C0.50
%
T01
X019025Y039625
X068025Y039625
X061999Y039625
X068025Y088625
X061999Y088625
X019025Y088625
X012999Y088625
T02
X008249Y042500
X008249Y044500
X057249Y042500
X057249Y044500
X057249Y091500
X057249Y093500
X008249Y091500
X008249Y093500
T03
X012999Y039625
T10
X050750Y059177
X050750Y058177
X050750Y057177
X050750Y056177
X050750Y055177
X050750Y054177
X048249Y054607
X048249Y055607
X048249Y056607
X048249Y057607
X048249Y058607
X050750Y089177
X050750Y088177
X050750Y087177
X050750Y086177
X050750Y085177
X048249Y084607
X048249Y085607
X048249Y086607
X048249Y087607
X048249Y088607
X048249Y089607
X059785Y048249
X058785Y048249
X057785Y048249
X056785Y048249
X055785Y048249
X054785Y048249
X055429Y050750
X056429Y050750
X057429Y050750
X058429Y050750
X059429Y050750
X087785Y048249
X086785Y048249
X085785Y048249
X084785Y048249
X083785Y048249
X083429Y050750
X084429Y050750
X085429Y050750
X086429Y050750
X087429Y050750
X088429Y050750
X048249Y035607
X048249Y036607
X048249Y037607
X048249Y038607
X048249Y039607
X048249Y040607
X050750Y040177
X050750Y039177
X050750Y038177
X050750Y037177
X050750Y036177
X048249Y008607
X048249Y009607
X048249Y010607
X048249Y011607
X048249Y012607
X048249Y013607
X050750Y013177
X050750Y012177
X050750Y011177
X050750Y010177
X050750Y009177
X040785Y048249
X039785Y048249
X038785Y048249
X037785Y048249
X036785Y048249
X036429Y050750
X037429Y050750
X038429Y050750
X039429Y050750
X040429Y050750
X041429Y050750
X013785Y048249
X012785Y048249
X011785Y048249
X010785Y048249
X009785Y048249
X008785Y048249
X009429Y050750
X010429Y050750
X011429Y050750
X012429Y050750
X013429Y050750
M30