%MOIN*%
%OFA0B0*%
%FSLAX44Y44*%
%IPPOS*%
%LPD*%
%ADD10C,0*%
D10*
X00014474Y00018897D02*
X00014474Y00018897D01*
X00005444Y00018897D01*
X00005423Y00018898D01*
X00005403Y00018899D01*
X00005383Y00018902D01*
X00005363Y00018906D01*
X00005343Y00018910D01*
X00005323Y00018916D01*
X00005304Y00018923D01*
X00005285Y00018930D01*
X00005267Y00018939D01*
X00005249Y00018949D01*
X00005231Y00018959D01*
X00005214Y00018971D01*
X00005198Y00018983D01*
X00005183Y00018996D01*
X00005168Y00019010D01*
X00005154Y00019025D01*
X00005140Y00019040D01*
X00005128Y00019056D01*
X00005116Y00019073D01*
X00005105Y00019090D01*
X00004872Y00019484D01*
X00004853Y00019521D01*
X00004837Y00019559D01*
X00004826Y00019599D01*
X00004819Y00019640D01*
X00004817Y00019681D01*
X00004819Y00019723D01*
X00004825Y00019764D01*
X00004835Y00019804D01*
X00004850Y00019842D01*
X00004869Y00019879D01*
X00004891Y00019914D01*
X00004917Y00019947D01*
X00004946Y00019976D01*
X00004978Y00020002D01*
X00005013Y00020025D01*
X00005050Y00020044D01*
X00005088Y00020059D01*
X00005128Y00020070D01*
X00005169Y00020076D01*
X00005211Y00020078D01*
X00014240Y00020078D01*
X00014261Y00020078D01*
X00014281Y00020076D01*
X00014301Y00020073D01*
X00014321Y00020070D01*
X00014341Y00020065D01*
X00014361Y00020059D01*
X00014380Y00020053D01*
X00014399Y00020045D01*
X00014417Y00020036D01*
X00014435Y00020027D01*
X00014453Y00020016D01*
X00014470Y00020005D01*
X00014486Y00019992D01*
X00014501Y00019979D01*
X00014516Y00019965D01*
X00014530Y00019951D01*
X00014544Y00019935D01*
X00014556Y00019919D01*
X00014568Y00019902D01*
X00014579Y00019885D01*
X00014812Y00019491D01*
X00014831Y00019455D01*
X00014847Y00019416D01*
X00014858Y00019376D01*
X00014865Y00019335D01*
X00014867Y00019294D01*
X00014865Y00019253D01*
X00014859Y00019212D01*
X00014849Y00019172D01*
X00014834Y00019133D01*
X00014816Y00019096D01*
X00014793Y00019061D01*
X00014767Y00019029D01*
X00014738Y00018999D01*
X00014706Y00018973D01*
X00014671Y00018950D01*
X00014634Y00018931D01*
X00014596Y00018917D01*
X00014556Y00018906D01*
X00014515Y00018899D01*
X00014474Y00018897D01*
X00018897Y00016074D02*
X00018897Y00016074D01*
X00018897Y00018897D01*
X00016234Y00018897D01*
X00016193Y00018899D01*
X00016152Y00018906D01*
X00016112Y00018917D01*
X00016073Y00018931D01*
X00016036Y00018950D01*
X00016002Y00018973D01*
X00015970Y00018999D01*
X00015940Y00019029D01*
X00015914Y00019061D01*
X00015892Y00019096D01*
X00015873Y00019133D01*
X00015859Y00019172D01*
X00015848Y00019212D01*
X00015842Y00019253D01*
X00015840Y00019294D01*
X00015843Y00019335D01*
X00015850Y00019376D01*
X00015861Y00019416D01*
X00015876Y00019455D01*
X00015895Y00019491D01*
X00016129Y00019885D01*
X00016140Y00019902D01*
X00016151Y00019919D01*
X00016164Y00019935D01*
X00016177Y00019951D01*
X00016191Y00019965D01*
X00016206Y00019979D01*
X00016222Y00019992D01*
X00016238Y00020005D01*
X00016255Y00020016D01*
X00016272Y00020027D01*
X00016290Y00020036D01*
X00016309Y00020045D01*
X00016328Y00020053D01*
X00016347Y00020059D01*
X00016367Y00020065D01*
X00016386Y00020070D01*
X00016406Y00020073D01*
X00016427Y00020076D01*
X00016447Y00020078D01*
X00016467Y00020078D01*
X00018897Y00020078D01*
X00018897Y00021560D01*
X00018899Y00021602D01*
X00018906Y00021642D01*
X00018917Y00021682D01*
X00018931Y00021721D01*
X00018950Y00021758D01*
X00018973Y00021793D01*
X00018999Y00021825D01*
X00019029Y00021854D01*
X00019061Y00021880D01*
X00019096Y00021902D01*
X00019133Y00021921D01*
X00019172Y00021935D01*
X00019212Y00021946D01*
X00019253Y00021952D01*
X00019294Y00021954D01*
X00019335Y00021951D01*
X00019376Y00021944D01*
X00019416Y00021933D01*
X00019455Y00021918D01*
X00019491Y00021899D01*
X00019885Y00021666D01*
X00019902Y00021655D01*
X00019919Y00021643D01*
X00019935Y00021630D01*
X00019951Y00021617D01*
X00019965Y00021603D01*
X00019979Y00021588D01*
X00019992Y00021572D01*
X00020005Y00021556D01*
X00020016Y00021539D01*
X00020027Y00021522D01*
X00020036Y00021504D01*
X00020045Y00021485D01*
X00020053Y00021467D01*
X00020059Y00021447D01*
X00020065Y00021428D01*
X00020070Y00021408D01*
X00020073Y00021388D01*
X00020076Y00021368D01*
X00020078Y00021347D01*
X00020078Y00021327D01*
X00020078Y00020078D01*
X00021560Y00020078D01*
X00021601Y00020076D01*
X00021642Y00020070D01*
X00021682Y00020059D01*
X00021721Y00020044D01*
X00021758Y00020025D01*
X00021793Y00020002D01*
X00021825Y00019976D01*
X00021854Y00019947D01*
X00021880Y00019914D01*
X00021902Y00019879D01*
X00021921Y00019842D01*
X00021935Y00019804D01*
X00021946Y00019764D01*
X00021952Y00019723D01*
X00021954Y00019681D01*
X00021951Y00019640D01*
X00021944Y00019599D01*
X00021933Y00019559D01*
X00021918Y00019521D01*
X00021899Y00019484D01*
X00021666Y00019090D01*
X00021655Y00019073D01*
X00021643Y00019056D01*
X00021631Y00019040D01*
X00021617Y00019025D01*
X00021603Y00019010D01*
X00021588Y00018996D01*
X00021572Y00018983D01*
X00021556Y00018971D01*
X00021539Y00018959D01*
X00021522Y00018949D01*
X00021504Y00018939D01*
X00021485Y00018930D01*
X00021467Y00018923D01*
X00021447Y00018916D01*
X00021428Y00018910D01*
X00021408Y00018906D01*
X00021388Y00018902D01*
X00021368Y00018899D01*
X00021347Y00018898D01*
X00021327Y00018897D01*
X00020078Y00018897D01*
X00020078Y00015840D01*
X00020076Y00015799D01*
X00020070Y00015758D01*
X00020059Y00015718D01*
X00020044Y00015680D01*
X00020025Y00015643D01*
X00020002Y00015608D01*
X00019976Y00015576D01*
X00019947Y00015547D01*
X00019914Y00015521D01*
X00019879Y00015498D01*
X00019842Y00015480D01*
X00019804Y00015465D01*
X00019764Y00015455D01*
X00019723Y00015449D01*
X00019681Y00015447D01*
X00019640Y00015449D01*
X00019599Y00015456D01*
X00019559Y00015467D01*
X00019521Y00015483D01*
X00019484Y00015502D01*
X00019090Y00015735D01*
X00019073Y00015746D01*
X00019056Y00015757D01*
X00019040Y00015770D01*
X00019025Y00015783D01*
X00019010Y00015798D01*
X00018996Y00015813D01*
X00018983Y00015828D01*
X00018971Y00015844D01*
X00018959Y00015861D01*
X00018949Y00015879D01*
X00018939Y00015897D01*
X00018930Y00015915D01*
X00018923Y00015934D01*
X00018916Y00015953D01*
X00018910Y00015973D01*
X00018906Y00015993D01*
X00018902Y00016013D01*
X00018899Y00016033D01*
X00018898Y00016053D01*
X00018897Y00016074D01*
X00000787Y00000787D02*
X00000787Y00000787D01*
X00018897Y00000787D01*
X00018897Y00003217D01*
X00018898Y00003237D01*
X00018899Y00003257D01*
X00018902Y00003278D01*
X00018906Y00003298D01*
X00018910Y00003318D01*
X00018916Y00003337D01*
X00018923Y00003356D01*
X00018930Y00003375D01*
X00018939Y00003394D01*
X00018949Y00003412D01*
X00018959Y00003429D01*
X00018971Y00003446D01*
X00018983Y00003462D01*
X00018996Y00003478D01*
X00019010Y00003493D01*
X00019025Y00003507D01*
X00019040Y00003520D01*
X00019056Y00003533D01*
X00019073Y00003545D01*
X00019090Y00003555D01*
X00019484Y00003789D01*
X00019521Y00003808D01*
X00019559Y00003823D01*
X00019599Y00003834D01*
X00019640Y00003841D01*
X00019681Y00003844D01*
X00019723Y00003842D01*
X00019764Y00003836D01*
X00019804Y00003825D01*
X00019842Y00003811D01*
X00019879Y00003792D01*
X00019914Y00003770D01*
X00019947Y00003744D01*
X00019976Y00003714D01*
X00020002Y00003682D01*
X00020025Y00003648D01*
X00020044Y00003611D01*
X00020059Y00003572D01*
X00020070Y00003532D01*
X00020076Y00003491D01*
X00020078Y00003450D01*
X00020078Y00000787D01*
X00038188Y00000787D01*
X00038188Y00018897D01*
X00034738Y00018897D01*
X00034697Y00018899D01*
X00034656Y00018906D01*
X00034616Y00018917D01*
X00034577Y00018931D01*
X00034540Y00018950D01*
X00034506Y00018973D01*
X00034473Y00018999D01*
X00034444Y00019029D01*
X00034418Y00019061D01*
X00034396Y00019096D01*
X00034377Y00019133D01*
X00034363Y00019172D01*
X00034352Y00019212D01*
X00034346Y00019253D01*
X00034344Y00019294D01*
X00034347Y00019335D01*
X00034354Y00019376D01*
X00034365Y00019416D01*
X00034380Y00019455D01*
X00034399Y00019491D01*
X00034633Y00019885D01*
X00034643Y00019902D01*
X00034655Y00019919D01*
X00034668Y00019935D01*
X00034681Y00019951D01*
X00034695Y00019965D01*
X00034710Y00019979D01*
X00034726Y00019992D01*
X00034742Y00020005D01*
X00034759Y00020016D01*
X00034776Y00020027D01*
X00034794Y00020036D01*
X00034813Y00020045D01*
X00034832Y00020053D01*
X00034851Y00020059D01*
X00034870Y00020065D01*
X00034890Y00020070D01*
X00034910Y00020073D01*
X00034931Y00020076D01*
X00034951Y00020078D01*
X00034971Y00020078D01*
X00038188Y00020078D01*
X00038188Y00038188D01*
X00020078Y00038188D01*
X00020078Y00035132D01*
X00020076Y00035090D01*
X00020070Y00035050D01*
X00020059Y00035010D01*
X00020044Y00034971D01*
X00020025Y00034934D01*
X00020002Y00034899D01*
X00019976Y00034867D01*
X00019947Y00034838D01*
X00019914Y00034812D01*
X00019879Y00034790D01*
X00019842Y00034771D01*
X00019804Y00034757D01*
X00019764Y00034746D01*
X00019723Y00034740D01*
X00019681Y00034738D01*
X00019640Y00034741D01*
X00019599Y00034748D01*
X00019559Y00034759D01*
X00019521Y00034774D01*
X00019484Y00034793D01*
X00019090Y00035026D01*
X00019073Y00035037D01*
X00019056Y00035049D01*
X00019040Y00035061D01*
X00019025Y00035075D01*
X00019010Y00035089D01*
X00018996Y00035104D01*
X00018983Y00035119D01*
X00018971Y00035136D01*
X00018959Y00035153D01*
X00018949Y00035170D01*
X00018939Y00035188D01*
X00018930Y00035206D01*
X00018923Y00035225D01*
X00018916Y00035245D01*
X00018910Y00035264D01*
X00018906Y00035284D01*
X00018902Y00035304D01*
X00018899Y00035324D01*
X00018898Y00035345D01*
X00018897Y00035365D01*
X00018897Y00038188D01*
X00000787Y00038188D01*
X00000787Y00020078D01*
X00003450Y00020078D01*
X00003491Y00020076D01*
X00003532Y00020070D01*
X00003572Y00020059D01*
X00003611Y00020044D01*
X00003648Y00020025D01*
X00003682Y00020002D01*
X00003714Y00019976D01*
X00003744Y00019947D01*
X00003770Y00019914D01*
X00003792Y00019879D01*
X00003811Y00019842D01*
X00003825Y00019804D01*
X00003836Y00019764D01*
X00003842Y00019723D01*
X00003844Y00019681D01*
X00003841Y00019640D01*
X00003834Y00019599D01*
X00003823Y00019559D01*
X00003808Y00019521D01*
X00003789Y00019484D01*
X00003555Y00019090D01*
X00003545Y00019073D01*
X00003533Y00019056D01*
X00003520Y00019040D01*
X00003507Y00019025D01*
X00003493Y00019010D01*
X00003478Y00018996D01*
X00003462Y00018983D01*
X00003446Y00018971D01*
X00003429Y00018959D01*
X00003412Y00018949D01*
X00003394Y00018939D01*
X00003375Y00018930D01*
X00003356Y00018923D01*
X00003337Y00018916D01*
X00003318Y00018910D01*
X00003298Y00018906D01*
X00003278Y00018902D01*
X00003257Y00018899D01*
X00003237Y00018898D01*
X00003217Y00018897D01*
X00000787Y00018897D01*
X00000787Y00000787D01*
X00018897Y00013847D02*
X00018897Y00013847D01*
X00018898Y00013867D01*
X00018899Y00013887D01*
X00018902Y00013908D01*
X00018906Y00013928D01*
X00018910Y00013947D01*
X00018916Y00013967D01*
X00018923Y00013986D01*
X00018930Y00014005D01*
X00018939Y00014024D01*
X00018949Y00014042D01*
X00018959Y00014059D01*
X00018971Y00014076D01*
X00018983Y00014092D01*
X00018996Y00014108D01*
X00019010Y00014123D01*
X00019025Y00014137D01*
X00019040Y00014150D01*
X00019056Y00014163D01*
X00019073Y00014174D01*
X00019090Y00014185D01*
X00019484Y00014419D01*
X00019521Y00014438D01*
X00019559Y00014453D01*
X00019599Y00014464D01*
X00019640Y00014471D01*
X00019681Y00014473D01*
X00019723Y00014472D01*
X00019764Y00014465D01*
X00019804Y00014455D01*
X00019842Y00014440D01*
X00019879Y00014422D01*
X00019914Y00014399D01*
X00019947Y00014374D01*
X00019976Y00014344D01*
X00020002Y00014312D01*
X00020025Y00014278D01*
X00020044Y00014241D01*
X00020059Y00014202D01*
X00020070Y00014162D01*
X00020076Y00014121D01*
X00020078Y00014080D01*
X00020078Y00005211D01*
X00020076Y00005169D01*
X00020070Y00005128D01*
X00020059Y00005088D01*
X00020044Y00005050D01*
X00020025Y00005013D01*
X00020002Y00004978D01*
X00019976Y00004946D01*
X00019947Y00004917D01*
X00019914Y00004891D01*
X00019879Y00004869D01*
X00019842Y00004850D01*
X00019804Y00004835D01*
X00019764Y00004825D01*
X00019723Y00004819D01*
X00019681Y00004817D01*
X00019640Y00004819D01*
X00019599Y00004826D01*
X00019559Y00004837D01*
X00019521Y00004853D01*
X00019484Y00004872D01*
X00019090Y00005105D01*
X00019073Y00005116D01*
X00019056Y00005128D01*
X00019040Y00005140D01*
X00019025Y00005154D01*
X00019010Y00005168D01*
X00018996Y00005183D01*
X00018983Y00005198D01*
X00018971Y00005214D01*
X00018959Y00005231D01*
X00018949Y00005249D01*
X00018939Y00005267D01*
X00018930Y00005285D01*
X00018923Y00005304D01*
X00018916Y00005323D01*
X00018910Y00005343D01*
X00018906Y00005363D01*
X00018902Y00005383D01*
X00018899Y00005403D01*
X00018898Y00005423D01*
X00018897Y00005444D01*
X00018897Y00013847D01*
X00023554Y00018897D02*
X00023554Y00018897D01*
X00023534Y00018898D01*
X00023513Y00018899D01*
X00023493Y00018902D01*
X00023473Y00018906D01*
X00023453Y00018910D01*
X00023434Y00018916D01*
X00023414Y00018923D01*
X00023395Y00018930D01*
X00023377Y00018939D01*
X00023359Y00018949D01*
X00023342Y00018959D01*
X00023325Y00018971D01*
X00023308Y00018983D01*
X00023293Y00018996D01*
X00023278Y00019010D01*
X00023264Y00019025D01*
X00023250Y00019040D01*
X00023238Y00019056D01*
X00023226Y00019073D01*
X00023215Y00019090D01*
X00022982Y00019484D01*
X00022963Y00019521D01*
X00022948Y00019559D01*
X00022936Y00019599D01*
X00022930Y00019640D01*
X00022927Y00019681D01*
X00022929Y00019723D01*
X00022935Y00019764D01*
X00022946Y00019804D01*
X00022960Y00019842D01*
X00022979Y00019879D01*
X00023001Y00019914D01*
X00023027Y00019947D01*
X00023056Y00019976D01*
X00023088Y00020002D01*
X00023123Y00020025D01*
X00023160Y00020044D01*
X00023199Y00020059D01*
X00023239Y00020070D01*
X00023279Y00020076D01*
X00023321Y00020078D01*
X00032744Y00020078D01*
X00032765Y00020078D01*
X00032785Y00020076D01*
X00032805Y00020073D01*
X00032825Y00020070D01*
X00032845Y00020065D01*
X00032865Y00020059D01*
X00032884Y00020053D01*
X00032903Y00020045D01*
X00032921Y00020036D01*
X00032939Y00020027D01*
X00032957Y00020016D01*
X00032973Y00020005D01*
X00032990Y00019992D01*
X00033005Y00019979D01*
X00033020Y00019965D01*
X00033034Y00019951D01*
X00033048Y00019935D01*
X00033060Y00019919D01*
X00033072Y00019902D01*
X00033083Y00019885D01*
X00033316Y00019491D01*
X00033335Y00019455D01*
X00033351Y00019416D01*
X00033362Y00019376D01*
X00033369Y00019335D01*
X00033371Y00019294D01*
X00033369Y00019253D01*
X00033363Y00019212D01*
X00033353Y00019172D01*
X00033338Y00019133D01*
X00033320Y00019096D01*
X00033297Y00019061D01*
X00033271Y00019029D01*
X00033242Y00018999D01*
X00033210Y00018973D01*
X00033175Y00018950D01*
X00033138Y00018931D01*
X00033100Y00018917D01*
X00033060Y00018906D01*
X00033019Y00018899D01*
X00032977Y00018897D01*
X00023554Y00018897D01*
X00020078Y00023554D02*
X00020078Y00023554D01*
X00020078Y00023534D01*
X00020076Y00023513D01*
X00020073Y00023493D01*
X00020070Y00023473D01*
X00020065Y00023453D01*
X00020059Y00023434D01*
X00020053Y00023414D01*
X00020045Y00023395D01*
X00020036Y00023377D01*
X00020027Y00023359D01*
X00020016Y00023342D01*
X00020005Y00023325D01*
X00019992Y00023308D01*
X00019979Y00023293D01*
X00019965Y00023278D01*
X00019951Y00023264D01*
X00019935Y00023250D01*
X00019919Y00023238D01*
X00019902Y00023226D01*
X00019885Y00023215D01*
X00019491Y00022982D01*
X00019455Y00022963D01*
X00019416Y00022948D01*
X00019376Y00022936D01*
X00019335Y00022930D01*
X00019294Y00022927D01*
X00019253Y00022929D01*
X00019212Y00022935D01*
X00019172Y00022946D01*
X00019133Y00022960D01*
X00019096Y00022979D01*
X00019061Y00023001D01*
X00019029Y00023027D01*
X00018999Y00023056D01*
X00018973Y00023088D01*
X00018950Y00023123D01*
X00018931Y00023160D01*
X00018917Y00023198D01*
X00018906Y00023238D01*
X00018899Y00023279D01*
X00018897Y00023321D01*
X00018897Y00033138D01*
X00018898Y00033158D01*
X00018899Y00033179D01*
X00018902Y00033199D01*
X00018906Y00033219D01*
X00018910Y00033239D01*
X00018916Y00033258D01*
X00018923Y00033278D01*
X00018930Y00033296D01*
X00018939Y00033315D01*
X00018949Y00033333D01*
X00018959Y00033350D01*
X00018971Y00033367D01*
X00018983Y00033383D01*
X00018996Y00033399D01*
X00019010Y00033414D01*
X00019025Y00033428D01*
X00019040Y00033442D01*
X00019056Y00033454D01*
X00019073Y00033466D01*
X00019090Y00033477D01*
X00019484Y00033710D01*
X00019521Y00033729D01*
X00019559Y00033744D01*
X00019599Y00033755D01*
X00019640Y00033762D01*
X00019681Y00033765D01*
X00019723Y00033763D01*
X00019764Y00033757D01*
X00019804Y00033746D01*
X00019842Y00033732D01*
X00019879Y00033713D01*
X00019914Y00033691D01*
X00019947Y00033665D01*
X00019976Y00033636D01*
X00020002Y00033604D01*
X00020025Y00033569D01*
X00020044Y00033532D01*
X00020059Y00033493D01*
X00020070Y00033453D01*
X00020076Y00033412D01*
X00020078Y00033371D01*
X00020078Y00023554D01*
M02*