M48
;Layer_Color=9474304
;FILE_FORMAT=2:5
INCH,TZ
T4F00S00C0.02000
%
G90
G05
T04
G00X198282Y156699
M15
G01X199175Y157069
G01X199978Y157606
G01X200662Y158289
G01X201199Y159093
G01X201569Y159986
G01X201757Y160934
G01X201757Y190943
G01X201952Y191537
G01X202757Y191943
G01X232767Y191943
G01X233715Y192132
G01X234608Y192502
G01X235411Y193039
G01X236095Y193722
G01X236632Y194526
G01X237002Y195419
G01X237190Y196367
G01X237190Y197334
G01X237002Y198282
G01X236632Y199175
G01X236095Y199978
G01X235411Y200662
G01X234608Y201199
G01X233715Y201569
G01X232767Y201757
G01X202757Y201757
G01X202164Y201952
G01X201757Y202757
G01X201757Y232767
G01X201569Y233715
G01X201199Y234608
G01X200662Y235411
G01X199978Y236095
G01X199175Y236632
G01X198282Y237002
G01X197334Y237190
G01X196367Y237190
G01X195419Y237002
G01X194526Y236632
G01X193722Y236095
G01X193039Y235411
G01X192502Y234608
G01X192132Y233715
G01X191943Y232767
G01X191943Y202757
G01X191748Y202164
G01X190943Y201757
G01X160934Y201757
G01X159986Y201569
G01X159093Y201199
G01X158289Y200662
G01X157606Y199978
G01X157069Y199175
G01X156699Y198282
G01X156510Y197334
G01X156510Y196367
G01X156699Y195419
G01X157069Y194526
G01X157606Y193722
G01X158289Y193039
G01X159093Y192502
G01X159986Y192132
G01X160934Y191943
G01X190943Y191943
G01X191537Y191748
G01X191943Y190943
G01X191943Y160934
G01X192132Y159986
G01X192502Y159093
G01X193039Y158289
G01X193722Y157606
G01X194526Y157069
G01X195419Y156699
G01X196367Y156510
G01X197334Y156510
G01X198282Y156699
M16
G00X198282Y38589
M15
G01X199175Y38959
G01X199978Y39496
G01X200662Y40179
G01X201199Y40983
G01X201569Y41876
G01X201757Y42824
G01X201757Y138279
G01X201569Y139227
G01X201199Y140120
G01X200662Y140923
G01X199978Y141607
G01X199175Y142144
G01X198282Y142514
G01X197334Y142702
G01X196367Y142702
G01X195419Y142514
G01X194526Y142144
G01X193722Y141607
G01X193039Y140923
G01X192502Y140120
G01X192132Y139227
G01X191943Y138279
G01X191943Y42824
G01X192132Y41876
G01X192502Y40983
G01X193039Y40179
G01X193722Y39496
G01X194526Y38959
G01X195419Y38589
G01X196367Y38400
G01X197334Y38400
G01X198282Y38589
M16
G00X351825Y192132
M15
G01X352718Y192502
G01X353522Y193039
G01X354205Y193722
G01X354742Y194526
G01X355112Y195419
G01X355301Y196367
G01X355301Y197334
G01X355112Y198282
G01X354742Y199175
G01X354205Y199978
G01X353522Y200662
G01X352718Y201199
G01X351825Y201569
G01X350877Y201757
G01X255422Y201757
G01X254474Y201569
G01X253581Y201199
G01X252777Y200662
G01X252094Y199978
G01X251557Y199175
G01X251187Y198282
G01X250998Y197334
G01X250998Y196367
G01X251187Y195419
G01X251557Y194526
G01X252094Y193722
G01X252777Y193039
G01X253581Y192502
G01X254474Y192132
G01X255422Y191943
G01X350877Y191943
G01X351825Y192132
M16
G00X198282Y251187
M15
G01X199175Y251557
G01X199978Y252094
G01X200662Y252777
G01X201199Y253581
G01X201569Y254474
G01X201757Y255422
G01X201757Y350877
G01X201569Y351825
G01X201199Y352718
G01X200662Y353522
G01X199978Y354205
G01X199175Y354742
G01X198282Y355112
G01X197334Y355301
G01X196367Y355301
G01X195419Y355112
G01X194526Y354742
G01X193722Y354205
G01X193039Y353522
G01X192502Y352718
G01X192132Y351825
G01X191943Y350877
G01X191943Y255422
G01X192132Y254474
G01X192502Y253581
G01X193039Y252777
G01X193722Y252094
G01X194526Y251557
G01X195419Y251187
G01X196367Y250998
G01X197334Y250998
G01X198282Y251187
M16
G00X139227Y192132
M15
G01X140120Y192502
G01X140923Y193039
G01X141607Y193722
G01X142144Y194526
G01X142514Y195419
G01X142702Y196367
G01X142702Y197334
G01X142514Y198282
G01X142144Y199175
G01X141607Y199978
G01X140923Y200662
G01X140120Y201199
G01X139227Y201569
G01X138279Y201757
G01X42824Y201757
G01X41876Y201569
G01X40983Y201199
G01X40179Y200662
G01X39496Y199978
G01X38959Y199175
G01X38589Y198282
G01X38400Y197334
G01X38400Y196367
G01X38589Y195419
G01X38959Y194526
G01X39496Y193722
G01X40179Y193039
G01X40983Y192502
G01X41876Y192132
G01X42824Y191943
G01X138279Y191943
G01X139227Y192132
M16
G00X198282Y369297
M15
G01X199175Y369667
G01X199978Y370204
G01X200662Y370888
G01X201199Y371691
G01X201569Y372584
G01X201757Y373532
G01X201757Y394184
G01X201569Y395132
G01X201199Y396025
G01X200662Y396829
G01X199978Y397512
G01X199175Y398049
G01X198282Y398419
G01X197334Y398608
G01X196367Y398608
G01X195419Y398419
G01X194526Y398049
G01X193722Y397512
G01X193039Y396829
G01X192502Y396025
G01X192132Y395132
G01X191943Y394184
G01X191943Y373532
G01X192132Y372584
G01X192502Y371691
G01X193039Y370888
G01X193722Y370204
G01X194526Y369667
G01X195419Y369297
G01X196367Y369109
G01X197334Y369109
G01X198282Y369297
M16
G00X395132Y192132
M15
G01X396025Y192502
G01X396829Y193039
G01X397512Y193722
G01X398049Y194526
G01X398419Y195419
G01X398608Y196367
G01X398608Y197334
G01X398419Y198282
G01X398049Y199175
G01X397512Y199978
G01X396829Y200662
G01X396025Y201199
G01X395132Y201569
G01X394184Y201757
G01X373532Y201757
G01X372584Y201569
G01X371691Y201199
G01X370888Y200662
G01X370204Y199978
G01X369667Y199175
G01X369297Y198282
G01X369109Y197334
G01X369109Y196367
G01X369297Y195419
G01X369667Y194526
G01X370204Y193722
G01X370888Y193039
G01X371691Y192502
G01X372584Y192132
G01X373532Y191943
G01X394184Y191943
G01X395132Y192132
M16
G00X197334Y-4907
M15
G01X198282Y-4718
G01X199175Y-4349
G01X199978Y-3812
G01X200662Y-3128
G01X201199Y-2324
G01X201569Y-1431
G01X201757Y-483
G01X201757Y20168
G01X201569Y21116
G01X201199Y22009
G01X200662Y22813
G01X199978Y23497
G01X199175Y24034
G01X198282Y24403
G01X197334Y24592
G01X196367Y24592
G01X195419Y24403
G01X194526Y24034
G01X193722Y23497
G01X193039Y22813
G01X192502Y22009
G01X192132Y21116
G01X191943Y20168
G01X191943Y-483
G01X192132Y-1431
G01X192502Y-2324
G01X193039Y-3128
G01X193722Y-3812
G01X194526Y-4349
G01X195419Y-4718
G01X196367Y-4907
G01X197334Y-4907
M16
G00X21116Y192132
M15
G01X22009Y192502
G01X22813Y193039
G01X23497Y193722
G01X24034Y194526
G01X24403Y195419
G01X24592Y196367
G01X24592Y197334
G01X24403Y198282
G01X24034Y199175
G01X23497Y199978
G01X22813Y200662
G01X22009Y201199
G01X21116Y201569
G01X20168Y201757
G01X-483Y201757
G01X-1431Y201569
G01X-2324Y201199
G01X-3128Y200662
G01X-3812Y199978
G01X-4349Y199175
G01X-4718Y198282
G01X-4907Y197334
G01X-4907Y196367
G01X-4718Y195419
G01X-4349Y194526
G01X-3812Y193722
G01X-3128Y193039
G01X-2324Y192502
G01X-1431Y192132
G01X-483Y191943
G01X20168Y191943
G01X21116Y192132
M16
G00X394294Y-805
M15
G01X394701Y0
G01X394701Y393701
G01X394506Y394294
G01X393701Y394701
G01X0Y394701
G01X-593Y394506
G01X-1000Y393701
G01X-1000Y0
G01X-805Y-593
G01X0Y-1000
G01X393701Y-1000
G01X394294Y-805
M16
G00X394294Y-805
M15
G01X394701Y0
G01X394701Y181102
G01X394506Y181696
G01X393701Y182102
G01X212598Y182102
G01X212005Y181907
G01X211598Y181102
G01X211598Y0
G01X211793Y-593
G01X212598Y-1000
G01X393701Y-1000
G01X394294Y-805
M16
G00X394294Y211793
M15
G01X394701Y212598
G01X394701Y393701
G01X394506Y394294
G01X393701Y394701
G01X212598Y394701
G01X212005Y394506
G01X211598Y393701
G01X211598Y212598
G01X211793Y212005
G01X212598Y211598
G01X393701Y211598
G01X394294Y211793
M16
G00X181696Y211793
M15
G01X182102Y212598
G01X182102Y393701
G01X181907Y394294
G01X181102Y394701
G01X0Y394701
G01X-593Y394506
G01X-1000Y393701
G01X-1000Y212598
G01X-805Y212005
G01X0Y211598
G01X181102Y211598
G01X181696Y211793
M16
G00X181696Y-805
M15
G01X182102Y0
G01X182102Y181102
G01X181907Y181696
G01X181102Y182102
G01X0Y182102
G01X-593Y181907
G01X-1000Y181102
G01X-1000Y0
G01X-805Y-593
G01X0Y-1000
G01X181102Y-1000
G01X181696Y-805
M16
M17
M30
