G04 Layer_Physical_Order=1*
G04 Layer_Color=255*
%FSLAX25Y25*%
%MOIN*%
G70*
G01*
G75*
%ADD10C,0.02756*%
%ADD11R,0.03740X0.03347*%
%ADD12C,0.01000*%
%ADD13C,0.01772*%
%ADD14C,0.07874*%
%ADD15R,0.07874X0.07874*%
%ADD16C,0.03150*%
D10*
X255906Y166929D02*
D03*
Y379528D02*
D03*
X43307D02*
D03*
Y166929D02*
D03*
X255906Y148130D02*
D03*
Y360728D02*
D03*
X43307D02*
D03*
Y148130D02*
D03*
D11*
X241732Y161516D02*
D03*
Y166831D02*
D03*
Y374114D02*
D03*
Y379429D02*
D03*
X29134Y374114D02*
D03*
Y379429D02*
D03*
Y161516D02*
D03*
Y166831D02*
D03*
D12*
X241732Y161516D02*
X255118Y148130D01*
X237146Y156929D02*
X241732Y161516D01*
X225197Y156929D02*
X237146D01*
X241634Y166929D02*
X241732Y166831D01*
X225197Y166929D02*
X241634D01*
X255118Y148130D02*
X255906D01*
X241732Y166831D02*
X241831Y166929D01*
X255906D01*
X241732Y374114D02*
X255118Y360728D01*
X237146Y369528D02*
X241732Y374114D01*
X225197Y369528D02*
X237146D01*
X241634Y379528D02*
X241732Y379429D01*
X225197Y379528D02*
X241634D01*
X255118Y360728D02*
X255906D01*
X241732Y379429D02*
X241831Y379528D01*
X255906D01*
X29134Y374114D02*
X42520Y360728D01*
X24547Y369528D02*
X29134Y374114D01*
X12598Y369528D02*
X24547D01*
X29035Y379528D02*
X29134Y379429D01*
X12598Y379528D02*
X29035D01*
X42520Y360728D02*
X43307D01*
X29134Y379429D02*
X29232Y379528D01*
X43307D01*
X29134Y161516D02*
X42520Y148130D01*
X24547Y156929D02*
X29134Y161516D01*
X12598Y156929D02*
X24547D01*
X29035Y166929D02*
X29134Y166831D01*
X12598Y166929D02*
X29035D01*
X42520Y148130D02*
X43307D01*
X29134Y166831D02*
X29232Y166929D01*
X43307D01*
D13*
X255906D02*
X263779D01*
X278740Y24409D02*
X279626Y148130D01*
X278740Y24409D02*
X366929D01*
Y151969D01*
X275000D02*
X366929D01*
X275000Y20669D02*
Y151969D01*
Y20669D02*
X370669D01*
Y155709D01*
X271260D02*
X370669D01*
X271260Y16929D02*
Y155709D01*
Y16929D02*
X374410D01*
Y159449D01*
X267520D02*
X374410D01*
X267520Y13189D02*
Y159449D01*
Y13189D02*
X378150D01*
Y163189D01*
X263779D02*
X378150D01*
X263779Y9449D02*
Y163189D01*
Y9449D02*
X381890D01*
Y166929D01*
X263779D02*
X381890D01*
X255906Y379528D02*
X263779D01*
X278740Y237008D02*
X279626Y360728D01*
X278740Y237008D02*
X366929D01*
Y364567D01*
X275000D02*
X366929D01*
X275000Y233268D02*
Y364567D01*
Y233268D02*
X370669D01*
Y368307D01*
X271260D02*
X370669D01*
X271260Y229528D02*
Y368307D01*
Y229528D02*
X374410D01*
Y372047D01*
X267520D02*
X374410D01*
X267520Y225787D02*
Y372047D01*
Y225787D02*
X378150D01*
Y375787D01*
X263779D02*
X378150D01*
X263779Y222047D02*
Y375787D01*
Y222047D02*
X381890D01*
Y379528D01*
X263779D02*
X381890D01*
X43307D02*
X51181D01*
X66142Y237008D02*
X67028Y360728D01*
X66142Y237008D02*
X154331D01*
Y364567D01*
X62402D02*
X154331D01*
X62402Y233268D02*
Y364567D01*
Y233268D02*
X158071D01*
Y368307D01*
X58661D02*
X158071D01*
X58661Y229528D02*
Y368307D01*
Y229528D02*
X161811D01*
Y372047D01*
X54921D02*
X161811D01*
X54921Y225787D02*
Y372047D01*
Y225787D02*
X165551D01*
Y375787D01*
X51181D02*
X165551D01*
X51181Y222047D02*
Y375787D01*
Y222047D02*
X169291D01*
Y379528D01*
X51181D02*
X169291D01*
X43307Y166929D02*
X51181D01*
X66142Y24409D02*
X67028Y148130D01*
X66142Y24409D02*
X154331D01*
Y151969D01*
X62402D02*
X154331D01*
X62402Y20669D02*
Y151969D01*
Y20669D02*
X158071D01*
Y155709D01*
X58661D02*
X158071D01*
X58661Y16929D02*
Y155709D01*
Y16929D02*
X161811D01*
Y159449D01*
X54921D02*
X161811D01*
X54921Y13189D02*
Y159449D01*
Y13189D02*
X165551D01*
Y163189D01*
X51181D02*
X165551D01*
X51181Y9449D02*
Y163189D01*
Y9449D02*
X169291D01*
Y166929D01*
X51181D02*
X169291D01*
D14*
X225197Y156929D02*
D03*
Y369528D02*
D03*
X12598D02*
D03*
Y156929D02*
D03*
D15*
X225197Y166929D02*
D03*
Y379528D02*
D03*
X12598D02*
D03*
Y166929D02*
D03*
D16*
X279626Y148130D02*
D03*
Y360728D02*
D03*
X67028D02*
D03*
Y148130D02*
D03*
M02*
