%MOIN*%
%OFA0B0*%
%FSLAX25Y25*%
%IPPOS*%
%LPD*%
%ADD10C,0.027560000413909679*%
%ADD11R,0.037400000561691654X0.033470000502668969*%
%ADD12C,0.011810000177368406*%
%ADD13C,0.017720000266127703*%
%ADD14R,0.059050000886842029X0.059050000886842029*%
%ADD15C,0.059050000886842029*%
%ADD16C,0.031500000473082539*%
%ADD27C,0.027560000413909679*%
%ADD28R,0.037400000561691654X0.033470000502668969*%
%ADD29C,0.011810000177368406*%
%ADD30C,0.017720000266127703*%
%ADD31R,0.059050000886842029X0.059050000886842029*%
%ADD32C,0.059050000886842029*%
%ADD33C,0.031500000473082539*%
%ADD34C,0.027560000413909679*%
%ADD35R,0.037400000561691654X0.033470000502668969*%
%ADD36C,0.011810000177368406*%
%ADD37C,0.017720000266127703*%
%ADD38R,0.059050000886842029X0.059050000886842029*%
%ADD39C,0.059050000886842029*%
%ADD40C,0.031500000473082539*%
%ADD41C,0.027560000413909679*%
%ADD42R,0.037400000561691654X0.033470000502668969*%
%ADD43C,0.011810000177368406*%
%ADD44C,0.017720000266127703*%
%ADD45R,0.059050000886842029X0.059050000886842029*%
%ADD46C,0.059050000886842029*%
%ADD47C,0.031500000473082539*%
G01*
G75*
D10*
X0051181Y0174803D02*
D03*
X0051181Y0156004D02*
D03*
D11*
X0042323Y0169587D02*
D03*
X0042323Y0174901D02*
D03*
D12*
X0032479Y0167323D02*
X0034154Y0167323D01*
X0036417Y0169587D01*
X0042323Y0169587D01*
X0042028Y0175197D02*
X0042323Y0174901D01*
X0032479Y0175197D02*
X0042028Y0175197D01*
X0042323Y0164862D02*
X0051181Y0156004D01*
X0042323Y0164862D02*
X0042323Y0169587D01*
X0042323Y0174901D02*
X0042421Y0174803D01*
X0051181Y0174803D01*
D13*
X0059055Y0174803D01*
X0074016Y0032283D02*
X0074902Y0156004D01*
X0074016Y0032283D02*
X0162205Y0032283D01*
X0162205Y0159843D01*
X0070276Y0159843D02*
X0162205Y0159843D01*
X0070276Y0028543D02*
X0070276Y0159843D01*
X0070276Y0028543D02*
X0165945Y0028543D01*
X0165945Y0163583D01*
X0066535Y0163583D02*
X0165945Y0163583D01*
X0066535Y0024803D02*
X0066535Y0163583D01*
X0066535Y0024803D02*
X0169685Y0024803D01*
X0169685Y0167323D01*
X0062795Y0167323D02*
X0169685Y0167323D01*
X0062795Y0021063D02*
X0062795Y0167323D01*
X0062795Y0021063D02*
X0173425Y0021063D01*
X0173425Y0171063D01*
X0059055Y0171063D02*
X0173425Y0171063D01*
X0059055Y0017323D02*
X0059055Y0171063D01*
X0059055Y0017323D02*
X0177164Y0017323D01*
X0177164Y0174803D01*
X0059055Y0174803D02*
X0177164Y0174803D01*
D14*
X0032479Y0175197D02*
D03*
D15*
X0032479Y0167323D02*
D03*
D16*
X0074902Y0156004D02*
D03*
G04 next file*
G04 Layer_Physical_Order=1*
G04 Layer_Color=255*
G04 skipping 70
G01*
G75*
D27*
X0248030Y0174803D02*
D03*
X0248030Y0156004D02*
D03*
D28*
X0239173Y0169587D02*
D03*
X0239173Y0174901D02*
D03*
D29*
X0229330Y0167323D02*
X0231004Y0167323D01*
X0233266Y0169587D01*
X0239173Y0169587D01*
X0238878Y0175197D02*
X0239173Y0174901D01*
X0229330Y0175197D02*
X0238878Y0175197D01*
X0239173Y0164862D02*
X0248030Y0156004D01*
X0239173Y0164862D02*
X0239173Y0169587D01*
X0239173Y0174901D02*
X0239271Y0174803D01*
X0248030Y0174803D01*
D30*
X0255905Y0174803D01*
X0270866Y0032283D02*
X0271752Y0156004D01*
X0270866Y0032283D02*
X0359055Y0032283D01*
X0359055Y0159843D01*
X0267126Y0159843D02*
X0359055Y0159843D01*
X0267126Y0028543D02*
X0267126Y0159843D01*
X0267126Y0028543D02*
X0362794Y0028543D01*
X0362794Y0163583D01*
X0263385Y0163583D02*
X0362794Y0163583D01*
X0263385Y0024803D02*
X0263385Y0163583D01*
X0263385Y0024803D02*
X0366535Y0024803D01*
X0366535Y0167323D01*
X0259645Y0167323D02*
X0366535Y0167323D01*
X0259645Y0021063D02*
X0259645Y0167323D01*
X0259645Y0021063D02*
X0370275Y0021063D01*
X0370275Y0171063D01*
X0255905Y0171063D02*
X0370275Y0171063D01*
X0255905Y0017323D02*
X0255905Y0171063D01*
X0255905Y0017323D02*
X0374015Y0017323D01*
X0374015Y0174803D01*
X0255905Y0174803D02*
X0374015Y0174803D01*
D31*
X0229330Y0175197D02*
D03*
D32*
X0229330Y0167323D02*
D03*
D33*
X0271752Y0156004D02*
D03*
G04 next file*
G04 Layer_Physical_Order=1*
G04 Layer_Color=255*
G04 skipping 70
G01*
G75*
D34*
X0248030Y0371653D02*
D03*
X0248030Y0352854D02*
D03*
D35*
X0239173Y0366437D02*
D03*
X0239173Y0371752D02*
D03*
D36*
X0229330Y0364173D02*
X0231004Y0364173D01*
X0233266Y0366437D01*
X0239173Y0366437D01*
X0238878Y0372047D02*
X0239173Y0371752D01*
X0229330Y0372047D02*
X0238878Y0372047D01*
X0239173Y0361711D02*
X0248030Y0352854D01*
X0239173Y0361711D02*
X0239173Y0366437D01*
X0239173Y0371752D02*
X0239271Y0371653D01*
X0248030Y0371653D01*
D37*
X0255905Y0371653D01*
X0270866Y0229133D02*
X0271752Y0352854D01*
X0270866Y0229133D02*
X0359055Y0229133D01*
X0359055Y0356693D01*
X0267126Y0356693D02*
X0359055Y0356693D01*
X0267126Y0225393D02*
X0267126Y0356693D01*
X0267126Y0225393D02*
X0362794Y0225393D01*
X0362794Y0360433D01*
X0263385Y0360433D02*
X0362794Y0360433D01*
X0263385Y0221653D02*
X0263385Y0360433D01*
X0263385Y0221653D02*
X0366535Y0221653D01*
X0366535Y0364173D01*
X0259645Y0364173D02*
X0366535Y0364173D01*
X0259645Y0217912D02*
X0259645Y0364173D01*
X0259645Y0217912D02*
X0370275Y0217912D01*
X0370275Y0367913D01*
X0255905Y0367913D02*
X0370275Y0367913D01*
X0255905Y0214173D02*
X0255905Y0367913D01*
X0255905Y0214173D02*
X0374015Y0214173D01*
X0374015Y0371653D01*
X0255905Y0371653D02*
X0374015Y0371653D01*
D38*
X0229330Y0372047D02*
D03*
D39*
X0229330Y0364173D02*
D03*
D40*
X0271752Y0352854D02*
D03*
G04 next file*
G04 Layer_Physical_Order=1*
G04 Layer_Color=255*
G04 skipping 70
G01*
G75*
D41*
X0051181Y0371653D02*
D03*
X0051181Y0352854D02*
D03*
D42*
X0042323Y0366437D02*
D03*
X0042323Y0371752D02*
D03*
D43*
X0032479Y0364173D02*
X0034154Y0364173D01*
X0036417Y0366437D01*
X0042323Y0366437D01*
X0042028Y0372047D02*
X0042323Y0371752D01*
X0032479Y0372047D02*
X0042028Y0372047D01*
X0042323Y0361711D02*
X0051181Y0352854D01*
X0042323Y0361711D02*
X0042323Y0366437D01*
X0042323Y0371752D02*
X0042421Y0371653D01*
X0051181Y0371653D01*
D44*
X0059055Y0371653D01*
X0074016Y0229133D02*
X0074902Y0352854D01*
X0074016Y0229133D02*
X0162205Y0229133D01*
X0162205Y0356693D01*
X0070276Y0356693D02*
X0162205Y0356693D01*
X0070276Y0225393D02*
X0070276Y0356693D01*
X0070276Y0225393D02*
X0165945Y0225393D01*
X0165945Y0360433D01*
X0066535Y0360433D02*
X0165945Y0360433D01*
X0066535Y0221653D02*
X0066535Y0360433D01*
X0066535Y0221653D02*
X0169685Y0221653D01*
X0169685Y0364173D01*
X0062795Y0364173D02*
X0169685Y0364173D01*
X0062795Y0217912D02*
X0062795Y0364173D01*
X0062795Y0217912D02*
X0173425Y0217912D01*
X0173425Y0367913D01*
X0059055Y0367913D02*
X0173425Y0367913D01*
X0059055Y0214173D02*
X0059055Y0367913D01*
X0059055Y0214173D02*
X0177164Y0214173D01*
X0177164Y0371653D01*
X0059055Y0371653D02*
X0177164Y0371653D01*
D45*
X0032479Y0372047D02*
D03*
D46*
X0032479Y0364173D02*
D03*
D47*
X0074902Y0352854D02*
D03*
M02*