%
M48
METRIC,000.000
T01C0.45
T02C0.70
T03C0.45
T10C0.50
%
T01
X019025Y039625
X069025Y039625
X062999Y039625
X069025Y089625
X062999Y089625
X019025Y089625
X012999Y089625
T02
X008249Y042500
X008249Y044500
X058249Y042500
X058249Y044500
X058249Y092500
X058249Y094500
X008249Y092500
X008249Y094500
T03
X012999Y039625
T10
X093785Y048249
X092785Y048249
X091785Y048249
X090785Y048249
X089785Y048249
X090429Y051750
X091429Y051750
X092429Y051750
X093429Y051750
X094429Y051750
X060785Y048249
X059785Y048249
X058785Y048249
X057785Y048249
X056785Y048249
X057429Y051750
X058429Y051750
X059429Y051750
X060429Y051750
X061429Y051750
X077785Y048249
X076785Y048249
X075785Y048249
X074785Y048249
X073785Y048249
X074429Y051750
X075429Y051750
X076429Y051750
X077429Y051750
X078429Y051750
X051750Y061177
X051750Y060177
X051750Y059177
X051750Y058177
X051750Y057177
X048249Y056607
X048249Y057607
X048249Y058607
X048249Y059607
X048249Y060607
X051750Y095177
X051750Y094177
X051750Y093177
X051750Y092177
X051750Y091177
X048249Y090607
X048249Y091607
X048249Y092607
X048249Y093607
X048249Y094607
X051750Y078177
X051750Y077177
X051750Y076177
X051750Y075177
X051750Y074177
X048249Y073607
X048249Y074607
X048249Y075607
X048249Y076607
X048249Y077607
X043785Y048249
X042785Y048249
X041785Y048249
X040785Y048249
X039785Y048249
X040429Y051750
X041429Y051750
X042429Y051750
X043429Y051750
X044429Y051750
X009785Y048249
X008785Y048249
X007785Y048249
X006785Y048249
X005785Y048249
X006429Y051750
X007429Y051750
X008429Y051750
X009429Y051750
X010429Y051750
X027785Y048249
X026785Y048249
X025785Y048249
X024785Y048249
X023785Y048249
X024429Y051750
X025429Y051750
X026429Y051750
X027429Y051750
X028429Y051750
X048249Y006607
X048249Y007607
X048249Y008607
X048249Y009607
X048249Y010607
X051750Y011177
X051750Y010177
X051750Y009177
X051750Y008177
X051750Y007177
X048249Y022607
X048249Y023607
X048249Y024607
X048249Y025607
X048249Y026607
X051750Y027177
X051750Y026177
X051750Y025177
X051750Y024177
X051750Y023177
X048249Y039607
X048249Y040607
X048249Y041607
X048249Y042607
X048249Y043607
X051750Y044177
X051750Y043177
X051750Y042177
X051750Y041177
X051750Y040177
M30